<svg id="seo-report" xmlns="http://www.w3.org/2000/svg" width="32" height="32" viewBox="0 0 32 32">
  <defs>
    <style>
      .cls-1 {
        fill: #314aef;
      }

      .cls-2 {
        fill: #fff;
      }
    </style>
  </defs>
  <g id="Layer_2">
    <path id="Path_18846" data-name="Path 18846" class="cls-1" d="M26,32H6a6,6,0,0,1-6-6V6A6,6,0,0,1,6,0H26a6,6,0,0,1,6,6V26A6,6,0,0,1,26,32Z"/>
  </g>
  <g id="bold_1_">
    <g id="Group_540" data-name="Group 540">
      <g id="Group_539" data-name="Group 539">
        <path id="Path_18847" data-name="Path 18847" class="cls-2" d="M11.92,15.233a.5.5,0,0,1-.329-.877l2.827-2.466a.5.5,0,1,1,.658.754L12.249,15.11a.5.5,0,0,1-.329.123Z"/>
        <path id="Path_18848" data-name="Path 18848" class="cls-2" d="M17.613,11.26a.5.5,0,0,1-.119-.985l2.107-.52a.5.5,0,0,1,.239.971l-2.107.52a.553.553,0,0,1-.12.014Z"/>
        <circle id="Ellipse_748" data-name="Ellipse 748" class="cls-2" cx="2" cy="2" r="2" transform="translate(8.667 13.833)"/>
        <circle id="Ellipse_749" data-name="Ellipse 749" class="cls-2" cx="2" cy="2" r="2" transform="translate(14 9.167)"/>
        <circle id="Ellipse_750" data-name="Ellipse 750" class="cls-2" cx="2" cy="2" r="2" transform="translate(19.333 7.833)"/>
      </g>
      <path id="Path_18849" data-name="Path 18849" class="cls-2" d="M23.333,23.167H8.667a.667.667,0,0,1,0-1.334H23.334a.667.667,0,1,1,0,1.334Z"/>
      <path id="Path_18850" data-name="Path 18850" class="cls-2" d="M21.333,23.167a.667.667,0,0,1-.667-.667V13.833a.667.667,0,0,1,1.334,0V22.5A.666.666,0,0,1,21.333,23.167Z"/>
      <path id="Path_18851" data-name="Path 18851" class="cls-2" d="M16,23.167a.667.667,0,0,1-.667-.667V15.167a.667.667,0,1,1,1.334,0V22.5A.667.667,0,0,1,16,23.167Z"/>
      <path id="Path_18852" data-name="Path 18852" class="cls-2" d="M10.667,23.167A.666.666,0,0,1,10,22.5V19.833a.667.667,0,1,1,1.334,0V22.5A.667.667,0,0,1,10.667,23.167Z"/>
    </g>
  </g>
</svg>
