<svg xmlns="http://www.w3.org/2000/svg" width="13.19" height="15.81" viewBox="0 0 13.19 15.81">
    <defs>
        <style>
            .prefix__cls-1{fill:#fff}
        </style>
    </defs>
    <g id="prefix__user_1_" data-name="user (1)">
        <path id="prefix__Path_19403" d="M90.84 7.616A3.684 3.684 0 0 0 93.532 6.5a3.684 3.684 0 0 0 1.116-2.692 3.685 3.685 0 0 0-1.116-2.692 3.807 3.807 0 0 0-5.385 0 3.685 3.685 0 0 0-1.116 2.692A3.684 3.684 0 0 0 88.147 6.5a3.685 3.685 0 0 0 2.693 1.116zm0 0" class="prefix__cls-1" data-name="Path 19403" transform="translate(-84.344)"/>
        <path id="prefix__Path_19404" d="M13.158 251.837a9.406 9.406 0 0 0-.128-1 7.873 7.873 0 0 0-.246-1 4.962 4.962 0 0 0-.413-.937 3.534 3.534 0 0 0-.623-.811 2.745 2.745 0 0 0-.894-.562 3.091 3.091 0 0 0-1.142-.207 1.159 1.159 0 0 0-.619.262c-.186.121-.4.261-.645.416a3.694 3.694 0 0 1-.834.368 3.24 3.24 0 0 1-2.041 0 3.686 3.686 0 0 1-.834-.367c-.24-.153-.457-.293-.645-.416a1.157 1.157 0 0 0-.619-.262 3.086 3.086 0 0 0-1.142.207 2.743 2.743 0 0 0-.895.562 3.536 3.536 0 0 0-.622.811 4.97 4.97 0 0 0-.413.937 7.89 7.89 0 0 0-.246 1 9.373 9.373 0 0 0-.128 1c-.021.3-.032.616-.032.934a2.625 2.625 0 0 0 .78 1.986 2.807 2.807 0 0 0 2.009.733H10.4a2.806 2.806 0 0 0 2.009-.733 2.624 2.624 0 0 0 .78-1.986c0-.319-.011-.633-.032-.934zm0 0" class="prefix__cls-1" data-name="Path 19404" transform="translate(0 -239.679)"/>
    </g>
</svg>
