<svg xmlns="http://www.w3.org/2000/svg" width="33.748" height="28.704" viewBox="0 0 33.748 28.704">
  <defs>
    <style>
      .cls-1 {
        fill: #f6e266;
      }

      .cls-2 {
        fill: #ecbe6b;
      }

      .cls-3 {
        fill: #eab14d;
      }

      .cls-4 {
        fill: #e49542;
      }
    </style>
  </defs>
  <g id="business-and-finance" transform="translate(0 0)">
    <path id="Path_19123" data-name="Path 19123" class="cls-1" d="M13.634,150.722H1.005A1,1,0,0,1,0,149.717v-1.578a1,1,0,0,1,1.005-1.005H13.634a1,1,0,0,1,1.005,1.005v1.578A1,1,0,0,1,13.634,150.722Z" transform="translate(0 -139.958)"/>
    <path id="Path_19124" data-name="Path 19124" class="cls-2" d="M140.844,148.186a1.01,1.01,0,0,0-.959-1.053h-1.562a1.01,1.01,0,0,1,.959,1.053.86.86,0,0,1-.639.828,10.639,10.639,0,0,0-3.533,1.706h4.775a1.008,1.008,0,0,0,.959-1.005C140.844,148.658,140.844,149.4,140.844,148.186Z" transform="translate(-126.204 -139.957)"/>
    <path id="Path_19125" data-name="Path 19125" class="cls-3" d="M288.081,422.888H275.452a1,1,0,0,1-1.005-1.005v-1.577a1,1,0,0,1,1.005-1.005h12.629a1,1,0,0,1,1.005,1.005v1.578A1,1,0,0,1,288.081,422.888Z" transform="translate(-256.357 -394.184)"/>
    <path id="Path_19126" data-name="Path 19126" class="cls-4" d="M459.855,419.3h-1.562a1.01,1.01,0,0,1,.959,1.053v1.482a1.01,1.01,0,0,1-.959,1.053h1.562a1.01,1.01,0,0,0,.959-1.053v-1.482A1.01,1.01,0,0,0,459.855,419.3Z" transform="translate(-428.085 -394.183)"/>
    <path id="Path_19127" data-name="Path 19127" class="cls-1" d="M288.081,368.454H275.452a1,1,0,0,1-1.005-1.005v-1.578a1,1,0,0,1,1.005-1.005h12.629a1,1,0,0,1,1.005,1.005v1.578A1,1,0,0,1,288.081,368.454Z" transform="translate(-256.357 -343.338)"/>
    <path id="Path_19128" data-name="Path 19128" class="cls-2" d="M459.855,364.866h-1.562a1.01,1.01,0,0,1,.959,1.053V367.4a1.01,1.01,0,0,1-.959,1.053h1.562a1.01,1.01,0,0,0,.959-1.053v-1.482A1.01,1.01,0,0,0,459.855,364.866Z" transform="translate(-428.085 -343.338)"/>
    <path id="Path_19129" data-name="Path 19129" class="cls-3" d="M288.081,314.021H275.452a1,1,0,0,1-1.005-1.005v-1.578a1,1,0,0,1,1.005-1.005h12.629a1,1,0,0,1,1.005,1.005v1.578A1,1,0,0,1,288.081,314.021Z" transform="translate(-256.357 -292.493)"/>
    <path id="Path_19130" data-name="Path 19130" class="cls-4" d="M459.855,310.433h-1.562a1.01,1.01,0,0,1,.959,1.053v1.482a1.01,1.01,0,0,1-.959,1.053h1.562a1.01,1.01,0,0,0,.959-1.053v-1.482A1.01,1.01,0,0,0,459.855,310.433Z" transform="translate(-428.085 -292.493)"/>
    <path id="Path_19131" data-name="Path 19131" class="cls-1" d="M303.534,259.588H290.905a1,1,0,0,1-1.005-1.005v-1.578A1,1,0,0,1,290.905,256h12.629a1,1,0,0,1,1.005,1.005v1.578A1,1,0,0,1,303.534,259.588Z" transform="translate(-270.791 -241.648)"/>
    <path id="Path_19132" data-name="Path 19132" class="cls-2" d="M475.308,256h-1.562a1.01,1.01,0,0,1,.959,1.053v1.482a1.01,1.01,0,0,1-.959,1.053h1.562a1.01,1.01,0,0,0,.959-1.053v-1.482A1.01,1.01,0,0,0,475.308,256Z" transform="translate(-442.519 -241.648)"/>
    <path id="Path_19133" data-name="Path 19133" class="cls-3" d="M288.081,205.155H275.452a1,1,0,0,1-1.005-1.005v-1.578a1,1,0,0,1,1.005-1.005h12.629a1,1,0,0,1,1.005,1.005v1.578A1,1,0,0,1,288.081,205.155Z" transform="translate(-256.357 -190.803)"/>
    <path id="Path_19134" data-name="Path 19134" class="cls-4" d="M459.855,201.567h-1.562a1.01,1.01,0,0,1,.959,1.053V204.1a1.01,1.01,0,0,1-.959,1.053h1.562a1.01,1.01,0,0,0,.959-1.053V202.62A1.01,1.01,0,0,0,459.855,201.567Z" transform="translate(-428.085 -190.803)"/>
    <path id="Path_19135" data-name="Path 19135" class="cls-1" d="M288.081,150.722H275.452a1,1,0,0,1-1.005-1.005v-1.578a1,1,0,0,1,1.005-1.005h12.629a1,1,0,0,1,1.005,1.005v1.578A1,1,0,0,1,288.081,150.722Z" transform="translate(-256.357 -139.958)"/>
    <path id="Path_19136" data-name="Path 19136" class="cls-2" d="M459.855,147.134h-1.562a1.01,1.01,0,0,1,.959,1.053v1.481a1.01,1.01,0,0,1-.959,1.053h1.562a1.01,1.01,0,0,0,.959-1.053v-1.481A1.01,1.01,0,0,0,459.855,147.134Z" transform="translate(-428.085 -139.958)"/>
    <path id="Path_19137" data-name="Path 19137" class="cls-3" d="M38.565,422.888H25.936a1,1,0,0,1-1.005-1.005v-1.577a1,1,0,0,1,1.005-1.005H38.565a1,1,0,0,1,1.005,1.005v1.578A1,1,0,0,1,38.565,422.888Z" transform="translate(-23.288 -394.184)"/>
    <path id="Path_19138" data-name="Path 19138" class="cls-4" d="M103.559,419.3H94.511a10.734,10.734,0,0,0,3.811,3.588h5.237a1,1,0,0,0,1.005-1.005V420.3a1,1,0,0,0-1.005-1.005Z" transform="translate(-88.281 -394.183)"/>
    <path id="Path_19139" data-name="Path 19139" class="cls-4" d="M210.34,419.3h-1.562a1.01,1.01,0,0,1,.959,1.053v1.482a1.01,1.01,0,0,1-.959,1.053h1.562a1.01,1.01,0,0,0,.959-1.053v-1.482A1.01,1.01,0,0,0,210.34,419.3Z" transform="translate(-195.016 -394.183)"/>
    <path id="Path_19140" data-name="Path 19140" class="cls-1" d="M38.565,368.454H25.936a1,1,0,0,1-1.005-1.005v-1.578a1,1,0,0,1,1.005-1.005H38.565a1,1,0,0,1,1.005,1.005v1.578A1,1,0,0,1,38.565,368.454Z" transform="translate(-23.288 -343.338)"/>
    <path id="Path_19141" data-name="Path 19141" class="cls-2" d="M82.9,364.866H72.39a10.619,10.619,0,0,0,1.458,3.588H82.9a1,1,0,0,0,1.005-1.005v-1.578A1,1,0,0,0,82.9,364.866Z" transform="translate(-67.618 -343.338)"/>
    <path id="Path_19142" data-name="Path 19142" class="cls-2" d="M210.34,364.866h-1.562a1.01,1.01,0,0,1,.959,1.053V367.4a1.01,1.01,0,0,1-.959,1.053h1.562a1.01,1.01,0,0,0,.959-1.053v-1.482A1.01,1.01,0,0,0,210.34,364.866Z" transform="translate(-195.016 -343.338)"/>
    <path id="Path_19143" data-name="Path 19143" class="cls-3" d="M13.634,314.021H1.005A1,1,0,0,1,0,313.016v-1.578a1,1,0,0,1,1.005-1.005H13.634a1,1,0,0,1,1.005,1.005v1.578A1,1,0,0,1,13.634,314.021Z" transform="translate(0 -292.493)"/>
    <path id="Path_19144" data-name="Path 19144" class="cls-4" d="M78.157,310.433H69.171a10.768,10.768,0,0,0,.123,3.588h8.863a1,1,0,0,0,1.005-1.005v-1.578a1,1,0,0,0-1.005-1.005Z" transform="translate(-64.523 -292.493)"/>
    <path id="Path_19145" data-name="Path 19145" class="cls-4" d="M210.34,310.433h-1.562a1.01,1.01,0,0,1,.959,1.053v1.482a1.01,1.01,0,0,1-.959,1.053h1.562a1.01,1.01,0,0,0,.959-1.053v-1.482A1.01,1.01,0,0,0,210.34,310.433Z" transform="translate(-195.016 -292.493)"/>
    <path id="Path_19146" data-name="Path 19146" class="cls-1" d="M38.565,259.588H25.936a1,1,0,0,1-1.005-1.005v-1.578A1,1,0,0,1,25.936,256H38.565a1,1,0,0,1,1.005,1.005v1.578A1,1,0,0,1,38.565,259.588Z" transform="translate(-23.288 -241.648)"/>
    <path id="Path_19147" data-name="Path 19147" class="cls-2" d="M81.151,256H71.676a10.609,10.609,0,0,0-1.154,3.588H81.151a1,1,0,0,0,1.005-1.005v-1.578A1,1,0,0,0,81.151,256Z" transform="translate(-65.874 -241.648)"/>
    <path id="Path_19148" data-name="Path 19148" class="cls-3" d="M38.565,205.155H25.936a1,1,0,0,1-1.005-1.005v-1.578a1,1,0,0,1,1.005-1.005H38.565a1,1,0,0,1,1.005,1.005v1.578A1,1,0,0,1,38.565,205.155Z" transform="translate(-23.288 -190.803)"/>
    <path id="Path_19149" data-name="Path 19149" class="cls-4" d="M97.511,201.567H91.139a10.73,10.73,0,0,0-3.1,3.588h9.475a1,1,0,0,0,1.005-1.005v-1.578A1,1,0,0,0,97.511,201.567Z" transform="translate(-82.233 -190.803)"/>
    <path id="Path_19150" data-name="Path 19150" class="cls-4" d="M210.34,201.567h-1.562a1.01,1.01,0,0,1,.959,1.053V204.1a1.01,1.01,0,0,1-.959,1.053h1.562a1.01,1.01,0,0,0,.959-1.053V202.62A1.01,1.01,0,0,0,210.34,201.567Z" transform="translate(-195.016 -190.803)"/>
    <path id="Path_19151" data-name="Path 19151" class="cls-3" d="M258.209,96.289H245.58a1,1,0,0,1-1.005-1.005V93.706A1,1,0,0,1,245.58,92.7h12.629a1,1,0,0,1,1.005,1.005v1.578A1,1,0,0,1,258.209,96.289Z" transform="translate(-228.454 -89.113)"/>
    <path id="Path_19152" data-name="Path 19152" class="cls-4" d="M429.984,92.7h-1.562a1.01,1.01,0,0,1,.959,1.053v1.481a1.01,1.01,0,0,1-.959,1.053h1.562a1.01,1.01,0,0,0,.959-1.053V93.754A1.01,1.01,0,0,0,429.984,92.7Z" transform="translate(-400.183 -89.113)"/>
    <path id="Path_19153" data-name="Path 19153" class="cls-1" d="M288.081,41.856H275.452a1,1,0,0,1-1.005-1.005V39.273a1,1,0,0,1,1.005-1.005h12.629a1,1,0,0,1,1.005,1.005v1.577A1,1,0,0,1,288.081,41.856Z" transform="translate(-256.357 -38.268)"/>
    <path id="Path_19154" data-name="Path 19154" class="cls-2" d="M459.855,38.268h-1.562a1.01,1.01,0,0,1,.959,1.053V40.8a1.01,1.01,0,0,1-.959,1.053h1.562a1.01,1.01,0,0,0,.959-1.053V39.321A1.01,1.01,0,0,0,459.855,38.268Z" transform="translate(-428.085 -38.268)"/>
    <ellipse id="Ellipse_757" data-name="Ellipse 757" class="cls-1" cx="9.335" cy="9.335" rx="9.335" ry="9.335" transform="translate(5.899 10.033)"/>
    <path id="Path_19155" data-name="Path 19155" class="cls-2" d="M218.012,190.485q-.468,0-.925.046a9.335,9.335,0,0,1,0,18.579q.457.045.925.046a9.335,9.335,0,1,0,0-18.67Z" transform="translate(-202.778 -180.452)"/>
    <g id="Group_585" data-name="Group 585" transform="translate(7.877 12.011)">
      <path id="Path_19156" data-name="Path 19156" class="cls-3" d="M126.856,235.2a7.358,7.358,0,1,1,7.358-7.358A7.366,7.366,0,0,1,126.856,235.2Zm0-13.7a6.339,6.339,0,1,0,6.339,6.339A6.346,6.346,0,0,0,126.856,221.5Z" transform="translate(-119.498 -220.483)"/>
    </g>
    <g id="Group_586" data-name="Group 586" transform="translate(12.875 18.859)">
      <path id="Path_19157" data-name="Path 19157" class="cls-3" d="M199.534,325.4h-3.7a.509.509,0,0,1,0-1.019h3.7a.509.509,0,0,1,0,1.019Z" transform="translate(-195.324 -324.383)"/>
    </g>
  </g>
</svg>
