<svg id="egypt_1_" data-name="egypt (1)" xmlns="http://www.w3.org/2000/svg" width="19.126" height="19.126" viewBox="0 0 19.126 19.126">
  <defs>
    <style>
      .cls-1 {
        fill: #fff;
      }

      .cls-2 {
        fill: #efefef;
      }

      .cls-3 {
        fill: #cc3434;
      }

      .cls-4 {
        fill: #0b0b0b;
      }

      .cls-5 {
        fill: #eebc31;
      }
    </style>
  </defs>
  <circle id="Ellipse_761" data-name="Ellipse 761" class="cls-1" cx="9.563" cy="9.563" r="9.563" transform="translate(0.001 0.001)"/>
  <path id="Path_19202" data-name="Path 19202" class="cls-2" d="M320.158,157.875H314.22a26.647,26.647,0,0,1,.005,6.389h5.946a9.647,9.647,0,0,0-.013-6.389Z" transform="translate(-301.583 -151.525)"/>
  <path id="Path_19203" data-name="Path 19203" class="cls-3" d="M260.4,7.357h5.938l0-.008A9.643,9.643,0,0,0,258.115.972C259.59,1.781,260.021,4.343,260.4,7.357Z" transform="translate(-247.761 -0.932)"/>
  <path id="Path_19204" data-name="Path 19204" class="cls-4" d="M258.115,321.294a9.644,9.644,0,0,0,8.225-6.4l.009-.027H260.4C260.029,317.9,259.6,320.482,258.115,321.294Z" transform="translate(-247.761 -302.208)"/>
  <path id="Path_19205" data-name="Path 19205" class="cls-2" d="M0,161.089a9.624,9.624,0,0,0,.538,3.175h12.75a26.649,26.649,0,0,0,0-6.389H.551A9.618,9.618,0,0,0,0,161.089Z" transform="translate(0 -151.525)"/>
  <path id="Path_19206" data-name="Path 19206" class="cls-3" d="M13.536,6.416l0,.008H26.265C25.888,3.41,24.961.848,23.486.04,23.2.014,22.912,0,22.62,0A9.64,9.64,0,0,0,13.536,6.416Z" transform="translate(-12.982)"/>
  <path id="Path_19207" data-name="Path 19207" class="cls-4" d="M25.969,314.871H13.219l.009.027a9.641,9.641,0,0,0,9.091,6.435c.292,0,.58-.014.866-.04C24.666,320.482,25.595,317.9,25.969,314.871Z" transform="translate(-12.681 -302.208)"/>
  <g id="Group_596" data-name="Group 596" transform="translate(7.655 7.337)">
    <path id="Path_19208" data-name="Path 19208" class="cls-5" d="M193.742,186.7a2.605,2.605,0,0,0-.429-.014c-.026.016-.023.061-.035.092.014.028.042.013.07.035.044.042.074.1.141.119-.057.06-.056.179-.141.211.014.138-.075.163-.211.19a8.262,8.262,0,0,1-2.348.049,1.174,1.174,0,0,1-.4-.105.131.131,0,0,1-.035-.12c-.081-.04-.082-.161-.147-.218.091-.031.108-.135.211-.155a.315.315,0,0,0-.021-.1,2.822,2.822,0,0,0-.443.014c.011-.157.015-.336.028-.52.018-.246.015-.535.035-.78.01-.125.006-.254.014-.38.015-.238,0-.473.021-.7.018-.24.01-.5.028-.724s.084-.424.358-.4c.326.027.53.3.886.3a.927.927,0,0,0,.239-.794c-.021-.137-.166-.335-.309-.26-.021-.231.2-.2.344-.127.044-.028.057-.067.105-.077a.529.529,0,0,1,.331.063.455.455,0,0,1,.162.408c0,.1-.022.2-.014.3a.886.886,0,0,0,.176.485c.33.03.572-.264.893-.3a.323.323,0,0,1,.309.127,6.14,6.14,0,0,1,.091,1.09c.017.227.007.464.021.7C193.7,185.64,193.719,186.166,193.742,186.7Zm-1.582-3.676a2.05,2.05,0,0,0-.028-.569c-.031-.03-.049-.073-.092-.091h-.105c-.053.028-.072.087-.127.1-.13.028-.14-.1-.239-.133-.026-.01-.06,0-.092-.014-.094-.029-.15-.062-.2.07.172-.01.326.046.366.19-.1-.027-.071.061-.063.119a1.044,1.044,0,0,1-.127.682c-.047.076-.107.135-.141.2.1-.019.195-.013.246-.078.069-.086.054-.27.1-.372a.76.76,0,0,1-.168.5c.25-.035.294-.244.316-.5a.663.663,0,0,1-.056.351c.032.04.051.095.1.12a.343.343,0,0,0,.091-.127.535.535,0,0,1-.042-.345c0,.27.071.464.3.5a.7.7,0,0,1-.155-.506,1.137,1.137,0,0,0,.091.387.5.5,0,0,0,.246.07A.978.978,0,0,1,192.16,183.028Zm-.443-.64v.028c.017,0,.015.013.035.007a.043.043,0,0,0,.007-.035A.035.035,0,0,0,191.718,182.388Zm-1.357.836a.269.269,0,0,0-.239.3c.068-.023.133-.087.2-.084-.038,1.058-.084,2.02-.127,3.065a.833.833,0,0,0-.183.176h.38c.02-.168.208-.2.366-.155.075-.258.15-.515.218-.78-.07.043-.105.119-.176.162.025-.676.059-1.335.084-2.024a.618.618,0,0,0,.457.063,1.4,1.4,0,0,0,.513-.225,1.147,1.147,0,0,0,.633.239.765.765,0,0,0,.323-.063c.015.689.064,1.363.077,2.018a1.972,1.972,0,0,0-.168-.162c.062.266.143.513.211.773.164-.052.345-.007.373.155.124,0,.267.009.379-.007-.044-.079-.153-.1-.182-.183a1.422,1.422,0,0,1-.014-.352c-.039-.85-.093-1.854-.113-2.706a2.138,2.138,0,0,1,.2.091c-.016-.169-.086-.285-.246-.3-.364-.024-.574.31-.942.3,0,.045.072.055.063.084a1.069,1.069,0,0,1-.246-.035c-.007.039.064.057.07.105a.627.627,0,0,1-.33-.161.651.651,0,0,1-.105.133.838.838,0,0,0-.105-.133.458.458,0,0,1-.323.155c.021-.036.063-.049.07-.1a.638.638,0,0,1-.246.028c.022-.026.059-.035.063-.078C190.954,183.537,190.71,183.2,190.361,183.225Zm.682.76a1.8,1.8,0,0,0,.815,1.624,1.834,1.834,0,0,0,.795-1.624,1.449,1.449,0,0,1-.576-.105c-.086-.037-.17-.105-.239-.127A1.248,1.248,0,0,1,191.043,183.984Zm.014.513c-.007.342-.061.758-.035,1.111a2.391,2.391,0,0,0,.063-.682.925.925,0,0,0-.021-.45A.033.033,0,0,1,191.057,184.5Zm1.561.633a1.123,1.123,0,0,0,.07.485c.007-.374-.04-.763-.042-1.132-.009,0-.01-.009-.021-.007A2.891,2.891,0,0,0,192.617,185.13Zm-1.448.4c.061-.068.128-.13.183-.2a.544.544,0,0,0-.127-.358C191.2,185.149,191.03,185.382,191.169,185.531Zm1.181-.2c.066.061.122.168.2.2.1-.171-.046-.354-.063-.548-.009,0-.01-.009-.021-.007A.559.559,0,0,0,192.35,185.334Zm-.942.317a1.949,1.949,0,0,0,.176-.225c-.087-.07-.151-.163-.232-.239C191.37,185.341,191.38,185.5,191.408,185.65Zm.71-.218a1.187,1.187,0,0,0,.183.218c.014-.152.026-.307.049-.45,0-.009,0-.017-.014-.014A2.407,2.407,0,0,1,192.118,185.432Zm-.97.141c-.009-.045-.032-.075-.042-.119a.964.964,0,0,0-.1.309c-.011.039-.038.071-.035.113.08-.035.114-.116.2-.148a1.75,1.75,0,0,0,.07.183c.065-.031.062-.13.12-.169.032.113.065.225.105.331.075-.063.16-.117.183-.232-.042-.1-.081-.2-.119-.3-.057.039-.093.136-.141.162a1.087,1.087,0,0,0-.049-.337A1.3,1.3,0,0,1,191.148,185.573Zm1.167.141c-.051-.052-.086-.119-.141-.168-.02.046-.044.092-.063.141a.609.609,0,0,0-.056.155c-.005.11.116.162.183.232a2.014,2.014,0,0,1,.091-.331c.044.055.063.134.127.169.032-.059.055-.128.084-.19a1.876,1.876,0,0,0,.183.155,2.465,2.465,0,0,0-.127-.429.552.552,0,0,1-.056.126,1.884,1.884,0,0,0-.19-.2A2.236,2.236,0,0,0,192.315,185.713Zm-.717-.267c-.114.081.012.246.056.338.02-.081.038-.163.056-.246C191.672,185.508,191.635,185.478,191.6,185.446Zm.394.1a.844.844,0,0,0,.063.239c.039-.083.068-.176.105-.26-.02-.029-.033-.066-.07-.077C192.073,185.495,192.011,185.5,191.992,185.545Zm-.851.211a.718.718,0,0,1-.183.155c-.049.142.052.262.1.372.064-.046.091-.129.155-.176a1.063,1.063,0,0,0,.084.239c.069-.048.108-.163.175-.19a.53.53,0,0,0,.056.218c.025-.134.057-.262.084-.394-.057.012-.1.1-.155.134-.039-.1-.064-.217-.105-.317-.055.039-.063.125-.113.169A.655.655,0,0,0,191.141,185.755Zm1.307.211c-.04-.058-.064-.133-.127-.169-.025.106-.054.208-.077.317-.059-.034-.1-.122-.155-.134a1.83,1.83,0,0,0,.1.4,1.294,1.294,0,0,1,.049-.232c.063.061.1.152.176.2.022-.084.052-.159.077-.239.06.051.088.133.155.176.039-.113.138-.218.1-.365-.073-.046-.128-.111-.2-.162C192.506,185.818,192.491,185.906,192.448,185.967Zm-.766.555c-.036.02-.062.051-.1.07-.015-.018-.058-.075-.07-.049s-.011.064-.021.092c.067.006.2-.02.232.042.1-.013.172.018.246,0,.028-.007.049-.037.077-.042.052-.01.1.009.155,0-.01-.031,0-.078-.021-.1-.046,0-.038.051-.084.049-.024-.032-.067-.045-.092-.077-.027-.2-.044-.4-.084-.583-.016.194.029.388.021.6-.038.032-.056.085-.1.113-.016-.047-.08-.071-.092-.133-.031-.172.064-.438.021-.577C191.734,186.114,191.726,186.335,191.683,186.522Zm-.9.007a.173.173,0,0,0,.119.028,1.134,1.134,0,0,1,.133-.168,1.636,1.636,0,0,0,.085.218h.049c.038-.046.059-.109.1-.155.025.055.036.123.063.176a.48.48,0,0,0,.127.007.545.545,0,0,0-.007-.436c-.065.057-.1.141-.169.2a.709.709,0,0,0-.092-.239c-.049.056-.093.117-.14.176-.05-.088-.064-.213-.134-.281C190.878,186.217,190.83,186.373,190.783,186.529Zm1.863-.2a.808.808,0,0,0-.148-.176c-.041.069-.048.173-.092.239-.054-.061-.1-.164-.168-.19a.555.555,0,0,0,.007.429.425.425,0,0,0,.119-.007c.032-.049.038-.126.07-.176.03.052.061.1.091.155h.056a2.227,2.227,0,0,1,.092-.225,1.031,1.031,0,0,0,.133.183c.039-.01.089-.01.105-.042-.048-.152-.087-.311-.133-.464h-.021C192.725,186.153,192.685,186.243,192.645,186.332Zm-1.722.239a1.446,1.446,0,0,0,.169.028.394.394,0,0,0-.077-.168C190.991,186.484,190.941,186.512,190.923,186.571Zm1.687.028a1.316,1.316,0,0,0,.162-.028c-.005-.042-.06-.094-.091-.133C192.636,186.47,192.627,186.539,192.61,186.6Zm-1.413.014c.023.014.071,0,.105.007-.013-.041-.011-.1-.049-.113A.354.354,0,0,0,191.2,186.613Zm1.2.007h.1a.132.132,0,0,0-.07-.113C192.426,186.55,192.389,186.589,192.4,186.62Zm.682-.1a5.292,5.292,0,0,1-.583.12,2.916,2.916,0,0,1-.45.014c-.041.045-.02.1.007.141a1.633,1.633,0,0,0,.443-.007c-.008-.149.169-.186.19-.028a1.873,1.873,0,0,0,.443-.113C193.132,186.589,193.131,186.53,193.081,186.522Zm-2.01.106c-.121-.017-.283-.074-.394-.1-.063-.014-.081,0-.105.028v.1a2.312,2.312,0,0,0,.443.105c.013-.159.191-.129.182.028a1.647,1.647,0,0,0,.443.007c.031-.049.052-.086.014-.141A3.243,3.243,0,0,1,191.071,186.627Zm-.64.084a.293.293,0,0,0,.119-.063c0-.034.007-.082-.007-.105A.131.131,0,0,0,190.431,186.712Zm2.72-.056a.331.331,0,0,0,.119.056.137.137,0,0,0-.112-.169C193.144,186.568,193.155,186.619,193.151,186.655Zm-2.046.19a.294.294,0,0,1,.056-.042.156.156,0,0,0-.028-.126C191.011,186.659,191.015,186.831,191.106,186.845Zm1.427-.049c.01.024.042.03.07.049.029-.016.042-.047.063-.07C192.663,186.621,192.486,186.684,192.533,186.8ZM191,186.782c-.187-.006-.376-.138-.541-.056-.005.034-.031.049-.021.1-.079-.008-.171.1-.176.134-.011.08.069.138.112.19a.173.173,0,0,0,.021.112,6.308,6.308,0,0,0,2.313.12c.216-.024.56-.046.619-.169v-.084c.078-.021.09-.106.112-.183-.062-.041-.084-.122-.183-.126.02-.028-.014-.054-.014-.084-.088-.075-.192-.02-.316.007-.17.037-.282.037-.324.162-.018-.043-.059-.062-.091-.092a1.46,1.46,0,0,1-.45.007c-.037.057-.117.07-.127.155a.351.351,0,0,1-.049-.169h-.07a.381.381,0,0,1-.056.169c-.006-.086-.089-.093-.119-.155a1.961,1.961,0,0,1-.45,0c-.048.015-.069.057-.105.084C191.079,186.839,191.029,186.822,191,186.782Zm.766-.085a.3.3,0,0,0,.049.085c.086.018.093-.042.119-.085A.421.421,0,0,0,191.767,186.7Zm-.1.12a.267.267,0,0,0,.105.077c.027-.073.008-.181-.07-.19C191.71,186.76,191.662,186.762,191.668,186.817Zm.3-.113c-.044.031-.1.148-.028.19.027-.035.075-.047.092-.092C192,186.779,192.011,186.718,191.971,186.7Z" transform="translate(-189.953 -182.241)"/>
    <path id="Path_19209" data-name="Path 19209" class="cls-5" d="M197.279,215.38a2.07,2.07,0,0,1-.239.2c.033-.959.094-1.945.127-2.938a.971.971,0,0,1,.218.183C197.354,213.687,197.314,214.474,197.279,215.38Z" transform="translate(-196.752 -211.409)"/>
    <path id="Path_19210" data-name="Path 19210" class="cls-5" d="M267.725,215.418c-.04.008-.079-.058-.119-.092a.606.606,0,0,1-.127-.112c-.044-.724-.034-1.488-.092-2.179a1.834,1.834,0,0,1-.014-.359c.022-.086.167-.118.211-.2C267.639,213.362,267.675,214.468,267.725,215.418Z" transform="translate(-264.218 -211.249)"/>
    <path id="Path_19211" data-name="Path 19211" class="cls-5" d="M204.568,218.352a1.429,1.429,0,0,1,.176.141c-.017.565-.052,1.241-.077,1.806a1.158,1.158,0,0,1-.007.288c-.03.082-.144.126-.2.2C204.493,219.965,204.541,219.154,204.568,218.352Z" transform="translate(-203.872 -216.883)"/>
    <path id="Path_19212" data-name="Path 19212" class="cls-5" d="M262.091,220.922c-.009.01-.029-.015-.042-.028-.042-.041-.1-.1-.141-.147-.036-.688-.063-1.4-.091-2.088a.752.752,0,0,1,.162-.148C262.02,219.251,262.056,220.129,262.091,220.922Z" transform="translate(-258.893 -217.035)"/>
    <path id="Path_19213" data-name="Path 19213" class="cls-5" d="M219.268,220.81a1.8,1.8,0,0,1-.738,1.539,1.882,1.882,0,0,1-.766-1.539,1.322,1.322,0,0,0,.766-.218A1.213,1.213,0,0,0,219.268,220.81Zm-.991-.049c-.012.288-.007.675-.007.991a1.6,1.6,0,0,0,0,.337c.012.045.082.087.119.119a.8.8,0,0,0,.133.105c.069-.054.236-.136.26-.225a1.59,1.59,0,0,0,0-.33v-1c-.091-.045-.177-.095-.267-.141C218.452,220.682,218.346,220.7,218.277,220.761Z" transform="translate(-216.632 -219.031)"/>
    <path id="Path_19214" data-name="Path 19214" class="cls-5" d="M206.542,288.477c.044.015.114,0,.119.056-.037.014-.067-.035-.119-.028Z" transform="translate(-205.867 -284.154)"/>
    <path id="Path_19215" data-name="Path 19215" class="cls-5" d="M263.835,288.605a.471.471,0,0,1-.119.049C263.715,288.605,263.81,288.582,263.835,288.605Z" transform="translate(-260.714 -284.268)"/>
    <path id="Path_19216" data-name="Path 19216" class="cls-5" d="M211.725,290.208a.24.24,0,0,1,.147.049C211.826,290.259,211.734,290.247,211.725,290.208Z" transform="translate(-210.839 -285.814)"/>
    <path id="Path_19217" data-name="Path 19217" class="cls-5" d="M257.821,290.3a.233.233,0,0,1-.155.042A.2.2,0,0,1,257.821,290.3Z" transform="translate(-254.911 -285.896)"/>
    <path id="Path_19218" data-name="Path 19218" class="cls-5" d="M248.319,291.82a.35.35,0,0,1-.155,0C248.176,291.773,248.3,291.777,248.319,291.82Z" transform="translate(-245.795 -287.328)"/>
    <path id="Path_19219" data-name="Path 19219" class="cls-5" d="M221.393,291.875c-.014.052-.113.019-.169.028C221.228,291.84,221.346,291.875,221.393,291.875Z" transform="translate(-219.951 -287.405)"/>
    <path id="Path_19220" data-name="Path 19220" class="cls-5" d="M227.063,292.24a.267.267,0,0,1-.148.021C226.929,292.223,227.022,292.227,227.063,292.24Z" transform="translate(-225.411 -287.755)"/>
    <path id="Path_19221" data-name="Path 19221" class="cls-5" d="M242.616,292.236a1.471,1.471,0,0,1-.148-.021C242.495,292.19,242.616,292.188,242.616,292.236Z" transform="translate(-240.331 -287.723)"/>
    <path id="Path_19222" data-name="Path 19222" class="cls-5" d="M254.793,294.053c.032,0,.015-.051.049-.049-.005.021.007.026.007.042a.139.139,0,0,1-.126.014c-.055.029-.124.131-.2.056-.051.008-.043.074-.084.092-.056-.044-.1-.022-.19-.014-.025.029-.027.08-.077.084,0-.032.042-.029.042-.063s-.048-.013-.063-.028c-.013-.058.032-.057.049-.084.032.008.035.045.042.078a.16.16,0,0,0,.063-.014.166.166,0,0,1,.049-.091c0-.039-.025-.092-.021-.113.04.009.021.078.042.105.054-.005.086.013.1.049.055-.021.071-.084.141-.084.031,0,.047.027.077.021.008-.093-.016-.285-.133-.211.005-.037.057-.027.1-.028C254.733,293.864,254.662,294.059,254.793,294.053Zm-.246.056c.032.029.114.013.105-.042C254.633,294.031,254.533,294.047,254.547,294.109Zm-.14.035a.258.258,0,0,0,.049-.014C254.456,294.05,254.344,294.09,254.407,294.144Zm-.063.021c.017,0,.022-.011.035-.014,0-.023,0-.049-.021-.049S254.324,294.143,254.344,294.165Zm-.169.014c.022.01.032,0,.049-.007,0-.017-.012-.021-.007-.042C254.188,294.132,254.169,294.143,254.175,294.18Zm.239,0a.031.031,0,0,0,.049-.029C254.441,294.155,254.413,294.153,254.414,294.18Z" transform="translate(-251.539 -289.273)"/>
    <path id="Path_19223" data-name="Path 19223" class="cls-5" d="M205.741,294.434v.035c-.01.011-.036.006-.056.007-.006-.025,0-.018-.007-.042A.05.05,0,0,1,205.741,294.434Z" transform="translate(-205.038 -289.858)"/>
    <path id="Path_19224" data-name="Path 19224" class="cls-5" d="M205.389,296.582c0,.012-.009.015-.007.028-.029,0-.055,0-.056-.028A.067.067,0,0,1,205.389,296.582Z" transform="translate(-204.7 -291.922)"/>
    <path id="Path_19225" data-name="Path 19225" class="cls-5" d="M242.977,298.155h.028a.055.055,0,0,1,0,.056h-.028A.055.055,0,0,1,242.977,298.155Z" transform="translate(-240.812 -293.438)"/>
    <path id="Path_19226" data-name="Path 19226" class="cls-5" d="M214.878,298.495c.022.092.037.289-.042.3s-.056-.107-.133-.113a.208.208,0,0,1-.155.014c-.035,0-.029.046-.063.049.045-.047.026-.106.021-.162.038,0,.043.041.042.085.02.042.1.014.133,0-.015-.03-.034-.055-.049-.085.043-.011.043-.051.084-.049a.073.073,0,0,1,.014.141c.046.017.052.075.092.1C214.914,298.756,214.846,298.577,214.878,298.495Zm-.211.112c0,.027.023.042.049.056C214.835,298.611,214.671,298.495,214.667,298.607Z" transform="translate(-213.486 -293.764)"/>
    <path id="Path_19227" data-name="Path 19227" class="cls-5" d="M225.886,298.495c.023.048-.008.159-.014.225A.584.584,0,0,1,225.886,298.495Z" transform="translate(-224.403 -293.764)"/>
    <path id="Path_19228" data-name="Path 19228" class="cls-5" d="M243.918,298.495c.047.047-.008.2.049.232.048-.014.08-.008.092-.049s-.041-.058-.014-.084c.063,0,.021.091.014.127a.481.481,0,0,1-.211.014c0-.036.042-.038.07-.049C243.945,298.624,243.9,298.544,243.918,298.495Z" transform="translate(-241.655 -293.764)"/>
    <path id="Path_19229" data-name="Path 19229" class="cls-5" d="M243.084,300.213c0,.041-.085.017-.056-.007C243.038,300.2,243.084,300.191,243.084,300.213Z" transform="translate(-240.863 -295.397)"/>
    <path id="Path_19230" data-name="Path 19230" class="cls-5" d="M250.646,301.129a.383.383,0,0,1,.049-.092c-.02-.039-.1-.076-.042-.127C250.761,300.927,250.711,301.1,250.646,301.129Zm.007-.183c0,.027.015.047.042.049C250.713,300.975,250.681,300.923,250.653,300.946Z" transform="translate(-248.165 -296.082)"/>
    <path id="Path_19231" data-name="Path 19231" class="cls-5" d="M268.454,301.3c0,.041-.05.027-.07.014C268.395,301.279,268.431,301.291,268.454,301.3Z" transform="translate(-265.192 -296.447)"/>
    <path id="Path_19232" data-name="Path 19232" class="cls-5" d="M227.755,301.434a.313.313,0,0,0,.267.035c.021.02.018.061.035.084a.06.06,0,0,1,.042-.007c-.015-.084.1-.1.1-.014-.021.04-.084.037-.148.035-.029.016-.029.06-.056.077a.082.082,0,0,1-.063-.063,1.106,1.106,0,0,0-.225-.014c-.028.033-.056.1-.1.1.021-.036.061-.052.07-.1-.013-.027-.062-.048-.035-.092.067-.011.035.078.091.077C227.793,301.529,227.747,301.473,227.755,301.434Zm.021.119c.038,0,.1,0,.155.007.022.018.025.055.056.063.023-.031.063-.088.028-.133C227.938,301.555,227.769,301.407,227.776,301.553Zm.351-.007c.036.006.05-.011.049-.042C228.15,301.468,228.1,301.51,228.127,301.546Z" transform="translate(-226.075 -296.584)"/>
    <path id="Path_19233" data-name="Path 19233" class="cls-5" d="M205.721,302.264c.022-.006.022.011.035.014a.114.114,0,0,1-.014.049C205.7,302.322,205.7,302.287,205.721,302.264Z" transform="translate(-205.067 -297.379)"/>
    <path id="Path_19234" data-name="Path 19234" class="cls-5" d="M207.465,302.955c.03.049-.042.075-.063.035C207.4,302.96,207.427,302.949,207.465,302.955Z" transform="translate(-206.692 -298.041)"/>
    <path id="Path_19235" data-name="Path 19235" class="cls-5" d="M210.048,303.437c-.007,0-.006.009-.007.014h-.049C209.959,303.393,210.051,303.373,210.048,303.437Z" transform="translate(-209.169 -298.467)"/>
    <path id="Path_19236" data-name="Path 19236" class="cls-5" d="M245.063,305.406c.037,0,.033.061.007.07S245.044,305.418,245.063,305.406Z" transform="translate(-242.807 -300.394)"/>
    <path id="Path_19237" data-name="Path 19237" class="cls-5" d="M246.668,305.6c-.021-.008-.042-.015-.049-.035C246.64,305.5,246.726,305.558,246.668,305.6Z" transform="translate(-244.313 -300.517)"/>
    <path id="Path_19238" data-name="Path 19238" class="cls-5" d="M205.777,294.7h.021c0,.1-.145.263.021.274.027-.017.012-.077.049-.084,0,.037-.014.051-.021.077.032.09.194.039.127-.063.079,0,.017.085.007.12a.162.162,0,0,1-.147-.028c-.078-.006-.147-.022-.155-.1C205.748,294.867,205.764,294.785,205.777,294.7Z" transform="translate(-205.038 -290.123)"/>
  </g>
</svg>
