<svg xmlns="http://www.w3.org/2000/svg" width="16.622" height="15.582" viewBox="0 0 16.622 15.582">
    <g id="prefix__browser">
        <path id="prefix__Path_19424" fill="#fff" d="M16.47 23.176l-6.46-6.46a2.406 2.406 0 0 0-3.4 0l-6.46 6.46a.519.519 0 0 0 .734.735L1.3 23.5v6.6a1.493 1.493 0 0 0 1.492 1.5h2.6a.325.325 0 0 0 .325-.325v-4.8a1.623 1.623 0 0 1 1.623-1.623h1.946a1.623 1.623 0 0 1 1.623 1.623v4.8a.325.325 0 0 0 .325.325h2.6a1.493 1.493 0 0 0 1.49-1.5v-6.6l.412.412a.519.519 0 0 0 .734-.735z" data-name="Path 19424" transform="translate(-.001 -16.013)"/>
    </g>
</svg>
