<svg xmlns="http://www.w3.org/2000/svg" width="26.104" height="17.102" viewBox="0 0 26.104 17.102">
  <defs>
    <style>
      .cls-1 {
        fill: #f5f5f5;
      }

      .cls-2 {
        fill: #ff4b55;
      }

      .cls-3 {
        fill: #41479b;
      }

      .cls-4 {
        fill: #464655;
      }
    </style>
  </defs>
  <g id="korea" transform="translate(0 0)">
    <path id="Path_18760" data-name="Path 18760" class="cls-1" d="M24.149,88.275H1.955A1.955,1.955,0,0,0,0,90.23v13.193a1.955,1.955,0,0,0,1.955,1.955H24.149a1.955,1.955,0,0,0,1.955-1.955V90.23A1.955,1.955,0,0,0,24.149,88.275Z" transform="translate(0 -88.275)"/>
    <path id="Path_18761" data-name="Path 18761" class="cls-2" d="M181.819,168.477a4.5,4.5,0,0,0-6.239,1.249,2.249,2.249,0,1,0,3.742,2.5,2.249,2.249,0,1,1,3.742,2.5,4.5,4.5,0,0,0-1.245-6.24" transform="translate(-166.269 -163.672)"/>
    <path id="Path_18762" data-name="Path 18762" class="cls-3" d="M168.557,207.038a2.249,2.249,0,1,0,3.742,2.5,2.249,2.249,0,1,1,3.742,2.5,4.5,4.5,0,1,1-7.484-4.99" transform="translate(-159.245 -200.983)"/>
    <g id="Group_498" data-name="Group 498" transform="translate(4.398 1.838)">
      <path id="Path_18763" data-name="Path 18763" class="cls-4" d="M338.366,147.32l.818,1.229a.225.225,0,0,1-.062.312l-.207.139a.225.225,0,0,1-.312-.062l-.819-1.229a.225.225,0,0,1,.062-.312l.208-.139A.225.225,0,0,1,338.366,147.32Z" transform="translate(-324.923 -146.052)"/>
      <path id="Path_18764" data-name="Path 18764" class="cls-4" d="M363.12,184.487l.82,1.228a.225.225,0,0,1-.063.313l-.208.138a.225.225,0,0,1-.311-.063l-.82-1.227a.225.225,0,0,1,.062-.312l.208-.139A.225.225,0,0,1,363.12,184.487Z" transform="translate(-348.416 -181.325)"/>
      <path id="Path_18765" data-name="Path 18765" class="cls-4" d="M355.508,135.865l2.082,3.124a.225.225,0,0,1-.062.312l-.209.139a.225.225,0,0,1-.312-.062l-2.082-3.124a.225.225,0,0,1,.063-.312l.21-.14A.225.225,0,0,1,355.508,135.865Z" transform="translate(-341.189 -135.181)"/>
      <path id="Path_18766" data-name="Path 18766" class="cls-4" d="M372.645,124.421l.819,1.231a.225.225,0,0,1-.063.312l-.208.138a.225.225,0,0,1-.311-.063l-.82-1.23a.225.225,0,0,1,.062-.312l.209-.139A.225.225,0,0,1,372.645,124.421Z" transform="translate(-357.454 -124.321)"/>
      <path id="Path_18767" data-name="Path 18767" class="cls-4" d="M397.425,161.663l.818,1.229a.225.225,0,0,1-.062.312l-.208.139a.225.225,0,0,1-.312-.062l-.818-1.229a.225.225,0,0,1,.062-.312l.208-.139A.225.225,0,0,1,397.425,161.663Z" transform="translate(-380.971 -159.664)"/>
      <path id="Path_18768" data-name="Path 18768" class="cls-4" d="M121.166,292.117l2.081,3.121a.225.225,0,0,1-.062.312l-.208.139a.225.225,0,0,1-.312-.062l-2.081-3.121a.225.225,0,0,1,.062-.312l.208-.139A.225.225,0,0,1,121.166,292.117Z" transform="translate(-118.797 -283.467)"/>
      <path id="Path_18769" data-name="Path 18769" class="cls-4" d="M104.031,303.565l.817,1.226a.225.225,0,0,1-.062.312l-.207.139a.225.225,0,0,1-.312-.062l-.818-1.225a.225.225,0,0,1,.062-.312l.208-.139A.225.225,0,0,1,104.031,303.565Z" transform="translate(-102.535 -294.331)"/>
      <path id="Path_18770" data-name="Path 18770" class="cls-4" d="M128.795,340.736l.818,1.229a.225.225,0,0,1-.062.312l-.208.139a.225.225,0,0,1-.312-.062l-.819-1.229a.225.225,0,0,1,.062-.312l.208-.139A.225.225,0,0,1,128.795,340.736Z" transform="translate(-126.036 -329.607)"/>
      <path id="Path_18771" data-name="Path 18771" class="cls-4" d="M86.876,315.01l2.08,3.121a.225.225,0,0,1-.062.312l-.208.139a.225.225,0,0,1-.312-.062l-2.081-3.12a.225.225,0,0,1,.062-.312l.209-.139A.225.225,0,0,1,86.876,315.01Z" transform="translate(-86.255 -305.192)"/>
      <path id="Path_18772" data-name="Path 18772" class="cls-4" d="M120.591,150.44l2.081-3.123a.225.225,0,0,1,.312-.062l.208.139a.225.225,0,0,1,.062.312l-2.082,3.121a.225.225,0,0,1-.311.063l-.208-.137A.225.225,0,0,1,120.591,150.44Z" transform="translate(-118.804 -146.05)"/>
      <path id="Path_18773" data-name="Path 18773" class="cls-4" d="M103.443,139l2.081-3.124a.225.225,0,0,1,.312-.062l.208.139a.225.225,0,0,1,.062.312l-2.081,3.124a.225.225,0,0,1-.312.062l-.208-.139A.225.225,0,0,1,103.443,139Z" transform="translate(-102.531 -135.189)"/>
      <path id="Path_18774" data-name="Path 18774" class="cls-4" d="M86.288,127.553l2.082-3.127a.225.225,0,0,1,.312-.062l.208.139a.225.225,0,0,1,.062.312l-2.08,3.127a.225.225,0,0,1-.312.063l-.209-.139A.225.225,0,0,1,86.288,127.553Z" transform="translate(-86.251 -124.326)"/>
      <path id="Path_18775" data-name="Path 18775" class="cls-4" d="M337.787,330.515l.818-1.225a.225.225,0,0,1,.312-.062l.207.139a.225.225,0,0,1,.062.312l-.817,1.226a.225.225,0,0,1-.312.062l-.208-.139A.225.225,0,0,1,337.787,330.515Z" transform="translate(-324.927 -318.745)"/>
      <path id="Path_18776" data-name="Path 18776" class="cls-4" d="M362.541,293.35l.819-1.231a.225.225,0,0,1,.312-.063l.209.139a.225.225,0,0,1,.062.312l-.821,1.23a.225.225,0,0,1-.311.063l-.207-.137A.225.225,0,0,1,362.541,293.35Z" transform="translate(-348.419 -283.468)"/>
      <path id="Path_18777" data-name="Path 18777" class="cls-4" d="M354.923,341.962l.819-1.229a.225.225,0,0,1,.312-.062l.209.14a.225.225,0,0,1,.062.312l-.818,1.229a.225.225,0,0,1-.312.063l-.21-.14A.225.225,0,0,1,354.923,341.962Z" transform="translate(-341.189 -329.605)"/>
      <path id="Path_18778" data-name="Path 18778" class="cls-4" d="M379.7,304.785l.819-1.226a.225.225,0,0,1,.312-.062l.209.139a.225.225,0,0,1,.062.312l-.819,1.226a.225.225,0,0,1-.312.062l-.209-.139A.225.225,0,0,1,379.7,304.785Z" transform="translate(-364.699 -294.326)"/>
      <path id="Path_18779" data-name="Path 18779" class="cls-4" d="M372.064,353.39l.82-1.226a.225.225,0,0,1,.311-.063l.208.138a.225.225,0,0,1,.063.313l-.819,1.228a.225.225,0,0,1-.312.062l-.209-.139A.225.225,0,0,1,372.064,353.39Z" transform="translate(-357.456 -340.452)"/>
      <path id="Path_18780" data-name="Path 18780" class="cls-4" d="M396.851,316.244l.818-1.228a.225.225,0,0,1,.312-.062l.208.139a.225.225,0,0,1,.062.312l-.818,1.226a.225.225,0,0,1-.312.063l-.207-.137A.225.225,0,0,1,396.851,316.244Z" transform="translate(-380.98 -305.199)"/>
    </g>
  </g>
</svg>
