<svg xmlns="http://www.w3.org/2000/svg" width="38.142" height="42.545" viewBox="0 0 38.142 42.545">
  <defs>
    <style>
      .cls-1 {
        fill: #e6af78;
      }

      .cls-2 {
        fill: #314aef;
      }

      .cls-3 {
        fill: #d29b6e;
      }

      .cls-4 {
        fill: #f0c087;
      }

      .cls-5 {
        fill: #0b48c2;
      }

      .cls-6 {
        fill: #ffc100;
      }

      .cls-7 {
        fill: #f5be08;
      }

      .cls-8 {
        fill: #785550;
      }

      .cls-9 {
        fill: #694b4b;
      }

      .cls-10 {
        fill: #5a4146;
      }
    </style>
  </defs>
  <g id="man" transform="translate(-26.495 -0.001)">
    <path id="Path_19181" data-name="Path 19181" class="cls-1" d="M189.761,305.284V300.15h-13.2v5.134l6.6,5.868Z" transform="translate(-137.593 -275.208)"/>
    <path id="Path_19182" data-name="Path 19182" class="cls-2" d="M62.375,363.3,53.3,361.161a1.457,1.457,0,0,1-.381-.153L45.566,365.3,38.5,360.8a1.462,1.462,0,0,1-.668.361L28.757,363.3a2.934,2.934,0,0,0-2.262,2.856V371.9a1.467,1.467,0,0,0,1.467,1.467H63.17a1.467,1.467,0,0,0,1.467-1.467v-5.745A2.934,2.934,0,0,0,62.375,363.3Z" transform="translate(0 -330.818)"/>
    <path id="Path_19183" data-name="Path 19183" class="cls-3" d="M176.558,300.149v5.417c8.316,3,13.2-4.5,13.2-4.5v-.915h-13.2Z" transform="translate(-137.593 -275.207)"/>
    <path id="Path_19184" data-name="Path 19184" class="cls-4" d="M141.249,97.127l.639,14.062a4.4,4.4,0,0,0,1.756,3.321l3.033,2.275a4.4,4.4,0,0,0,2.641.88h2.934a4.4,4.4,0,0,0,2.641-.88l3.033-2.275a4.4,4.4,0,0,0,1.756-3.321l.639-14.062Z" transform="translate(-105.218 -89.055)"/>
    <path id="Path_19185" data-name="Path 19185" class="cls-1" d="M148.584,100.06c2.934,0,7.335-.733,8.379-2.934H141.249l.639,14.062a4.4,4.4,0,0,0,1.756,3.321l3.033,2.275a4.4,4.4,0,0,0,2.641.88h1.467c-1.467,0-4.4-2.934-4.4-6.6v-8.8A2.342,2.342,0,0,1,148.584,100.06Z" transform="translate(-105.218 -89.054)"/>
    <g id="Group_588" data-name="Group 588" transform="translate(26.495 33.516)">
      <path id="Path_19186" data-name="Path 19186" class="cls-5" d="M31.883,407.6l-4.753-4.27a2.929,2.929,0,0,0-.632,1.818V410.9a1.467,1.467,0,0,0,1.467,1.467H33.1V410.33A3.668,3.668,0,0,0,31.883,407.6Z" transform="translate(-26.498 -403.332)"/>
      <path id="Path_19187" data-name="Path 19187" class="cls-5" d="M407.28,407.6l4.753-4.27a2.929,2.929,0,0,1,.632,1.818V410.9a1.467,1.467,0,0,1-1.467,1.467h-5.134V410.33A3.667,3.667,0,0,1,407.28,407.6Z" transform="translate(-374.523 -403.332)"/>
    </g>
    <path id="Path_19188" data-name="Path 19188" class="cls-6" d="M237.6,439.158h-3.667l.458-6.6h2.751Z" transform="translate(-190.202 -396.612)"/>
    <path id="Path_19189" data-name="Path 19189" class="cls-7" d="M237.6,414.9h-3.667v1.38a.82.82,0,0,0,.82.82h2.027a.82.82,0,0,0,.82-.82V414.9Z" transform="translate(-190.202 -380.425)"/>
    <g id="Group_589" data-name="Group 589" transform="translate(36.764 28.255)">
      <path id="Path_19190" data-name="Path 19190" class="cls-5" d="M152.175,340.209l6.7,6.034a25.3,25.3,0,0,0-4.195,2.858.941.941,0,0,1-1.457-.33l-3.15-6.93,1-1.495A.733.733,0,0,1,152.175,340.209Z" transform="translate(-150.078 -340.021)"/>
      <path id="Path_19191" data-name="Path 19191" class="cls-5" d="M262.706,340.209l-6.7,6.034A25.3,25.3,0,0,1,260.2,349.1a.941.941,0,0,0,1.457-.33l3.15-6.93-1-1.495A.733.733,0,0,0,262.706,340.209Z" transform="translate(-247.2 -340.021)"/>
    </g>
    <path id="Path_19192" data-name="Path 19192" class="cls-8" d="M309.516,33.619l.688,4.859c3.139.628,3.591,5.554,3.656,6.961a1.446,1.446,0,0,0,.232.717l1.2,1.858a7.027,7.027,0,0,1,1.467-5.134S317.4,30.685,309.516,33.619Z" transform="translate(-259.503 -30.407)"/>
    <path id="Path_19193" data-name="Path 19193" class="cls-4" d="M354.812,187.285l-.828,3.312a.882.882,0,0,1-.856.668h0a.882.882,0,0,1-.875-.772l-.424-3.388a1.519,1.519,0,0,1,1.508-1.708h0A1.519,1.519,0,0,1,354.812,187.285Z" transform="translate(-298.29 -169.991)"/>
    <path id="Path_19194" data-name="Path 19194" class="cls-9" d="M116.922,1.9l1.085.741c-4.905,3.622-3.988,9.833-3.988,9.833,1.467,1.467,1.467,5.134,1.467,5.134l1.467-1.467s-.566-4.238,2.2-5.868c2.567-1.513,4.814-.733,7.106-.733,6.143,0,7.862-2.315,7.564-5.134-.154-1.459-2.385-4.5-8.068-4.4A24.7,24.7,0,0,0,116.922,1.9Z" transform="translate(-80.188 0)"/>
    <path id="Path_19195" data-name="Path 19195" class="cls-10" d="M116.494,38.009a8.057,8.057,0,0,1,1.513-6.258c-4.905,3.622-3.988,9.833-3.988,9.833,1.467,1.467,1.467,5.134,1.467,5.134l1.467-1.467s-.566-4.238,2.2-5.868c2.567-1.513,4.814-.733,7.106-.733a18.022,18.022,0,0,0,2.645-.182C124.172,38.627,121.384,35.044,116.494,38.009Z" transform="translate(-80.188 -29.112)"/>
    <path id="Path_19196" data-name="Path 19196" class="cls-1" d="M123.644,187.285l.828,3.312a.882.882,0,0,0,.856.668h0a.882.882,0,0,0,.875-.772l.424-3.388a1.519,1.519,0,0,0-1.508-1.708h0A1.519,1.519,0,0,0,123.644,187.285Z" transform="translate(-89.034 -169.991)"/>
    <path id="Path_19197" data-name="Path 19197" class="cls-5" d="M306.006,494.346h-5.134a.733.733,0,0,0-.733.733v.734h6.6v-.734A.734.734,0,0,0,306.006,494.346Z" transform="translate(-250.905 -453.267)"/>
  </g>
</svg>
