<svg xmlns="http://www.w3.org/2000/svg" width="43.886" height="42" viewBox="0 0 43.886 42">
    <g id="navigation" transform="translate(0 -11)">
        <path id="Path_20012" fill="#fff" d="M41.529 15.286l2.186-2.914A.857.857 0 0 0 43.029 11h-8.572a.857.857 0 0 0-.857.857v10.355a4.025 4.025 0 0 0-3.293 2.5H18.514a.857.857 0 0 0-.857.857v8.571a.857.857 0 0 0 .857.857h18v3.429H28.8a.857.857 0 0 0-.857.857v9.429H11.01a3.682 3.682 0 0 0-2.327-2.249l1.566-5.219a.857.857 0 0 0-1.067-1.067L.611 42.75a.857.857 0 0 0-.072 1.617l3.945 1.578.256.641a3.39 3.39 0 0 0-2.168 2.985C2.571 51.462 4.494 53 6.857 53a4.234 4.234 0 0 0 4.15-2.571H28.8a.857.857 0 0 0 .857-.857v-9.429h7.714a.857.857 0 0 0 .857-.857v-5.143a.857.857 0 0 0-.857-.857h-18v-6.857h10.936A4.233 4.233 0 0 0 34.457 29c2.363 0 4.286-1.538 4.286-3.429 0-1.656-1.475-3.041-3.429-3.36v-2.64h7.714a.857.857 0 0 0 .686-1.371zM3.454 43.687l4.7-1.409-1.409 4.7-.8-2.007a.857.857 0 0 0-.478-.478zm3.4 7.6c-1.394 0-2.571-.785-2.571-1.714a1.676 1.676 0 0 1 1.091-1.393l.684 1.711a.857.857 0 0 0 .8.539H6.9a.857.857 0 0 0 .783-.61l.511-1.7a1.751 1.751 0 0 1 1.239 1.458c0 .929-1.178 1.714-2.571 1.714zm30.175-25.716c0 .929-1.178 1.714-2.571 1.714s-2.571-.785-2.571-1.714c0-.73.727-1.371 1.714-1.612v1.612a.857.857 0 1 0 1.714 0v-1.612c.985.241 1.714.882 1.714 1.612zm2.742-9.771l1.543 2.057h-6v-5.143h6l-1.543 2.057a.857.857 0 0 0 0 1.029z" data-name="Path 20012"/>
    </g>
</svg>
