<svg xmlns="http://www.w3.org/2000/svg" id="prefix__payment" width="14.379" height="14.436" viewBox="0 0 14.379 14.436">
    <defs>
        <style>
            .prefix__cls-1{fill:#fff}
        </style>
    </defs>
    <path id="prefix__Path_19427" d="M234.667 106.65a.373.373 0 0 0 .1.362 1.333 1.333 0 0 0 .153.1v-.812a.5.5 0 0 0-.253.35z" class="prefix__cls-1" data-name="Path 19427" transform="translate(-228.07 -103.299)"/>
    <path id="prefix__Path_19428" d="M263.9 165.6h-.009v1.16a.7.7 0 0 0 .4-.521.548.548 0 0 0-.391-.639z" class="prefix__cls-1" data-name="Path 19428" transform="translate(-256.48 -160.924)"/>
    <path id="prefix__Path_19429" d="M10.586.423A.423.423 0 0 0 9.9.088l-.83.646-.835-.646a.423.423 0 0 0-.518 0l-.834.646L6.05.088a.423.423 0 0 0-.518 0L4.7.734 3.866.088a.423.423 0 0 0-.518 0l-.833.646-.833-.646A.423.423 0 0 0 1 .423v11.334a2.682 2.682 0 0 0 2.679 2.679h7.716a2.81 2.81 0 0 1-.808-1.974zM2.692 2.594h3.1a.423.423 0 0 1 0 .846h-3.1a.423.423 0 0 1 0-.846zm0 1.692h3.1a.423.423 0 0 1 0 .846h-3.1a.423.423 0 0 1 0-.846zm0 1.692h3.1a.423.423 0 0 1 0 .846h-3.1a.423.423 0 0 1 0-.846zm6.2 5.921h-6.2a.423.423 0 0 1 0-.846h6.2a.423.423 0 0 1 0 .846zm0-1.692h-6.2a.423.423 0 0 1 0-.846h6.2a.423.423 0 0 1 0 .846zm0-1.692h-6.2a.423.423 0 0 1 0-.846h6.2a.423.423 0 0 1 0 .846zM9.367 5.4a1.268 1.268 0 0 1-.955 1.019v.263a.282.282 0 1 1-.564 0v-.237a1.522 1.522 0 0 1-.8-.289.282.282 0 1 1 .309-.472.987.987 0 0 0 .491.195V4.447a2.389 2.389 0 0 1-.5-.29.924.924 0 0 1-.3-.911 1.045 1.045 0 0 1 .716-.82l.084-.026v-.229a.282.282 0 1 1 .564 0v.2a1.086 1.086 0 0 1 .651.323.282.282 0 0 1-.424.372.524.524 0 0 0-.227-.119v1.122l.2.072A1.1 1.1 0 0 1 9.367 5.4z" class="prefix__cls-1" data-name="Path 19429" transform="translate(-1)"/>
    <path id="prefix__Path_19430" d="M374.281 302.052l-.956.674-.956-.674a.423.423 0 0 0-.488 0l-.882.622v3.248a1.974 1.974 0 1 0 3.947 0V302.4a.423.423 0 0 0-.665-.348z" class="prefix__cls-1" data-name="Path 19430" transform="translate(-360.568 -293.46)"/>
</svg>
