<svg xmlns="http://www.w3.org/2000/svg" width="17.277" height="18.006" viewBox="0 0 17.277 18.006">
    <defs>
        <style>
            .prefix__cls-1{fill:#fff}
        </style>
    </defs>
    <g id="prefix__sale" transform="translate(-10.359 .002)">
        <g id="prefix__Group_693" data-name="Group 693" transform="translate(10.359 -.002)">
            <g id="prefix__Group_692" data-name="Group 692">
                <path id="prefix__Path_19659" d="M26.8 9.234a.528.528 0 0 1 0-.466l.672-1.374a1.563 1.563 0 0 0-.672-2.076L25.449 4.6a.528.528 0 0 1-.274-.377l-.264-1.506a1.563 1.563 0 0 0-1.766-1.283l-1.514.214a.528.528 0 0 1-.444-.144L20.089.442a1.563 1.563 0 0 0-2.183 0l-1.1 1.063a.528.528 0 0 1-.444.144l-1.512-.214a1.563 1.563 0 0 0-1.766 1.283l-.264 1.506a.528.528 0 0 1-.274.377l-1.351.717a1.563 1.563 0 0 0-.674 2.076l.672 1.374a.528.528 0 0 1 0 .466l-.672 1.374a1.563 1.563 0 0 0 .674 2.076l1.351.717a.528.528 0 0 1 .274.377l.264 1.506a1.562 1.562 0 0 0 1.541 1.3 1.606 1.606 0 0 0 .225-.016l1.514-.214a.528.528 0 0 1 .444.144l1.1 1.063a1.563 1.563 0 0 0 2.182 0l1.1-1.063a.528.528 0 0 1 .444-.144l1.514.214a1.563 1.563 0 0 0 1.766-1.283l.264-1.506a.528.528 0 0 1 .274-.377l1.351-.717a1.563 1.563 0 0 0 .674-2.076zm-9.879-4.906a1.9 1.9 0 1 1-1.9 1.9 1.906 1.906 0 0 1 1.9-1.9zm-.983 8.472a.519.519 0 0 1-.734-.734l6.854-6.854a.519.519 0 1 1 .734.734zm5.137.879a1.9 1.9 0 1 1 1.9-1.9 1.906 1.906 0 0 1-1.9 1.895z" class="prefix__cls-1" data-name="Path 19659" transform="translate(-10.359 .002)"/>
            </g>
        </g>
        <g id="prefix__Group_695" data-name="Group 695" transform="translate(20.209 10.905)">
            <g id="prefix__Group_694" data-name="Group 694">
                <path id="prefix__Path_19660" d="M291.317 310.141a.865.865 0 1 0 .865.865.866.866 0 0 0-.865-.865z" class="prefix__cls-1" data-name="Path 19660" transform="translate(-290.452 -310.141)"/>
            </g>
        </g>
        <g id="prefix__Group_697" data-name="Group 697" transform="translate(16.055 5.366)">
            <g id="prefix__Group_696" data-name="Group 696">
                <path id="prefix__Path_19661" d="M173.2 152.646a.865.865 0 1 0 .865.865.866.866 0 0 0-.865-.865z" class="prefix__cls-1" data-name="Path 19661" transform="translate(-172.333 -152.646)"/>
            </g>
        </g>
    </g>
</svg>
