<svg xmlns="http://www.w3.org/2000/svg" width="36.5" height="42.473" viewBox="0 0 36.5 42.473">
    <defs>
        <style>
            .cls-1{fill:#fff}
        </style>
    </defs>
    <g id="send_1_" data-name="send (1)" transform="translate(-36)">
        <path id="Path_20008" d="M80.977 42.489a2.489 2.489 0 1 0-2.489 2.489 2.491 2.491 0 0 0 2.489-2.489zm-3.318 0a.83.83 0 1 1 .83.83.83.83 0 0 1-.83-.83z" class="cls-1" data-name="Path 20008" transform="translate(-36.682 -36.682)"/>
        <path id="Path_20009" d="M41.229 14.7a.83.83 0 0 0 1.155 0c.213-.207 5.229-5.116 5.229-9.042A5.809 5.809 0 0 0 36 5.656c0 3.926 5.016 8.835 5.229 9.044zm.578-13.039a4.079 4.079 0 0 1 4.148 4c0 2.343-2.615 5.623-4.148 7.26-1.533-1.642-4.148-4.921-4.148-7.265a4.079 4.079 0 0 1 4.148-3.997z" class="cls-1" data-name="Path 20009"/>
        <path id="Path_20010" d="M96 115.126V128.4a.83.83 0 0 0 .347.675l11.481 8.2a1.064 1.064 0 0 0 .592.205h.065a1.055 1.055 0 0 0 .57-.2l3.892-2.78a7.466 7.466 0 1 0 7.939-9.7v-9.669a.751.751 0 0 0-.347-.675l-11.614-8.3a.83.83 0 0 0-.964 0l-11.614 8.3a.91.91 0 0 0-.347.675zm12.443 7.276l-2.555-1.825 10.186-7.276 2.555 1.825zm6.2-10.12l-10.186 7.276-2.223-1.588 10.186-7.276zm-12.837 7.418l1.661 1.187v5.022l-1.659-1.244zm6.636-11.851l2.558 1.825-10.19 7.276-2.555-1.825zm-10.784 8.888l2.489 1.778v6.565a.829.829 0 0 0 .332.664l3.318 2.489a.83.83 0 0 0 1.327-.664v-5.5l2.489 1.778v11.234l-9.955-7.11zm11.614 18.344v-11.233l9.955-7.11v8.057a7.476 7.476 0 0 0-6.636 7.42c0 .163.006.325.016.486zm10.784 2.939a5.807 5.807 0 1 1 5.807-5.807 5.813 5.813 0 0 1-5.807 5.808z" class="cls-1" data-name="Path 20010" transform="translate(-55.022 -97.207)"/>
        <path id="Path_20011" d="M344.052 387.244a.83.83 0 0 0-1.173 0l-3.561 3.561-1.9-1.9a.83.83 0 0 0-1.173 1.173l2.489 2.489a.83.83 0 0 0 1.173 0l4.148-4.148a.829.829 0 0 0-.003-1.175z" class="cls-1" data-name="Path 20011" transform="translate(-275.113 -354.898)"/>
    </g>
</svg>
