<svg xmlns="http://www.w3.org/2000/svg" width="19.03" height="27.065" viewBox="0 0 19.03 27.065">
    <defs>
        <style>
            .cls-1{fill:#fff}
        </style>
    </defs>
    <g id="time" transform="translate(-76)">
        <path id="Path_20026" d="M92.248 21.9a11.508 11.508 0 0 0-2.834-.851c.326-.338.659-.7.993-1.082a21.869 21.869 0 0 0 3.165-4.648 13.14 13.14 0 0 0 1.458-5.804 9.515 9.515 0 0 0-19.03 0 13.14 13.14 0 0 0 1.459 5.809 21.872 21.872 0 0 0 3.165 4.648c.334.383.667.744.993 1.082a11.511 11.511 0 0 0-2.835.851c-1.426.68-1.725 1.457-1.725 1.989 0 .673.466 1.631 2.684 2.37a21.2 21.2 0 0 0 11.548 0c2.218-.739 2.684-1.7 2.684-2.37 0-.532-.3-1.308-1.725-1.989zM77.057 9.515a8.458 8.458 0 1 1 16.916 0c0 3.925-2.364 7.465-4.347 9.744a29.164 29.164 0 0 1-4.11 3.869 29.162 29.162 0 0 1-4.11-3.869c-1.983-2.279-4.347-5.82-4.347-9.744zm13.9 15.746a20.178 20.178 0 0 1-10.879 0c-1.447-.482-1.961-1.038-1.961-1.367 0-.549 1.378-1.495 4.432-1.917.452.43.873.8 1.241 1.117-.561.194-.915.48-.915.8 0 .584 1.184 1.057 2.643 1.057s2.643-.473 2.643-1.057c0-.32-.355-.606-.916-.8.368-.313.789-.687 1.241-1.117 3.054.423 4.432 1.368 4.432 1.917-.003.328-.518.884-1.963 1.367z" class="cls-1" data-name="Path 20026"/>
        <path id="Path_20027" d="M128.585 52.676a.543.543 0 0 0 .048-.042.531.531 0 0 0 .042-.048 7.387 7.387 0 0 0 0-10.37.537.537 0 0 0-.042-.048.527.527 0 0 0-.048-.042 7.387 7.387 0 0 0-10.37 0 .529.529 0 0 0-.048.042.523.523 0 0 0-.042.048 7.387 7.387 0 0 0 0 10.37.532.532 0 0 0 .042.048.521.521 0 0 0 .048.042 7.387 7.387 0 0 0 10.37 0zm-8.923-1.537a.529.529 0 0 0-.748 0l-.356.356a6.315 6.315 0 0 1-1.48-3.565h.506a.529.529 0 0 0 0-1.057h-.506a6.315 6.315 0 0 1 1.48-3.565l.356.356a.529.529 0 0 0 .748-.748l-.356-.356a6.315 6.315 0 0 1 3.565-1.48v.506a.529.529 0 0 0 1.057 0v-.506a6.315 6.315 0 0 1 3.565 1.48l-.356.356a.529.529 0 1 0 .748.748l.356-.356a6.316 6.316 0 0 1 1.48 3.565h-.506a.529.529 0 1 0 0 1.057h.506a6.315 6.315 0 0 1-1.48 3.565l-.356-.356a.529.529 0 1 0-.748.748l.356.356a6.316 6.316 0 0 1-3.565 1.48v-.506a.529.529 0 1 0-1.057 0v.506a6.315 6.315 0 0 1-3.565-1.48l.356-.356a.529.529 0 0 0 .001-.749z" class="cls-1" data-name="Path 20027" transform="translate(-37.886 -37.886)"/>
        <path id="Path_20028" d="M227.586 105.815a1.576 1.576 0 0 0 .683-.155l1.057 1.057a.529.529 0 1 0 .748-.748l-1.057-1.057a1.585 1.585 0 0 0-.9-2.178v-2.205a.529.529 0 1 0-1.057 0v2.205a1.586 1.586 0 0 0 .529 3.081zm0-2.114a.529.529 0 1 1-.529.529.529.529 0 0 1 .529-.53z" class="cls-1" data-name="Path 20028" transform="translate(-142.071 -94.714)"/>
    </g>
</svg>
