<svg xmlns="http://www.w3.org/2000/svg" width="1366" height="791.332" viewBox="0 0 1366 791.332">
    <defs>
        <radialGradient id="radial-gradient" cx=".5" cy=".5" r=".666" gradientTransform="matrix(.57 0 0 .576 .215 .212)" gradientUnits="objectBoundingBox">
            <stop offset="0" stop-color="#052b90"/>
            <stop offset="1" stop-color="#052b4c"/>
        </radialGradient>
        <clipPath id="clip-path">
            <path id="Path_20070" d="M688.643 80.4L7.9 475.925l685.257 395.807L1373.9 475.925z" data-name="Path 20070" transform="translate(-7.9 -80.4)"/>
        </clipPath>
        <style>
            .cls-4{fill:#fff}.cls-5{fill:#314aef}
        </style>
    </defs>
    <g id="OBJECTS" transform="translate(-7.9 -80.4)">
        <g id="Group_1008" data-name="Group 1008" transform="translate(7.9 80.4)">
            <g id="Group_1004" data-name="Group 1004">
                <g id="Group_1003" clip-path="url(#clip-path)" data-name="Group 1003">
                    <path id="Path_20069" fill="url(#radial-gradient)" d="M771.533 672.977l24.262 14.106 22.569-13.259-20.877-16.081zM650.506 557.028l-41.753-23.98L577.72 551.1l41.753 23.98zm17.773 43.728l28.776-16.645L668 567.466l-56.141 32.443zm-334.306 14.952l-21.159 12.413 30.751 17.773 21.159-12.413zm359.979 31.6l32.161 18.62 22.287-12.981-32.161-18.62zm-525.3-96.483l-25.108-14.67-18.9 11 25.108 14.67zm527.556-259.267l23.7 13.824 14.952-5.924-26.237-15.234zm-22.851-51.909l-21.441 16.363 11.567 5.078 21.441-16.363zm72.5 56.987l27.929-9.874-34.982-20.312-22.287 12.977zm-26.237-33.007l-20.03-11.567-25.108 14.67 20.03 11.567zM210.407 592.292l30.751 17.773 22-12.7-30.746-17.765zM1311.5 529.1l5.36.282c3.95-25.673-13.824-43.446-33.854-55.012-14.67-8.463-30.468-13.542-39.778-16.081l32.725-17.773 77.3-27.929-5.925-5.36-74.76 27.083-128.927-51.345 79.839-46.267-13.542-7.9-27.647 16.081 2.257-2.821-159.677-42.6-2.257 2.821c-1.975-13.824-11.285-27.083-27.929-38.085l3.95 2.257 51.627-29.9-7.9-4.514-51.345 29.9-1.693-.846-67.424-38.934 51.345-29.9-7.9-4.514L914 217.644l-93.662-54.166L791.845 81.1l-18.9 2.257 7.617 22-87.457-8.457-86.327 54.73-50.216-39.214-15.517 6.484 26.8 20.876-4.514-1.975-77.017 62.347-31.879-28.776-9.31 3.385 66.3 59.808 4.514-1.693c-35.264 24.544-52.755 49.088-60.091 61.783L347.8 232.313l-13.541 7.9 49.934 28.776-43.167 25.111 33.29 89.43-142.75 26.8-35.266-84.072-26.8 3.668 12.413 29.622-3.95-2.257-71.657 41.471L88.251 448.7-11.9 506.811l7.9 4.514 99.869-58.116 47.4-2.821 24.826 65.733-147.27 5.079 1.128 9.592L220 524.3l-3.95 1.128 23.133 23.98-100.434 43.73 6.489 5.078 99.022-43.164 10.438 11A77.953 77.953 0 0 0 272.19 579.6c21.723 12.7 52.473 19.184 84.07 17.491l42.317-2.257-25.39 66.579-162.5-36.393-9.874 14.952L556 719.244l34.136 19.748-53.6 31.315-112.851-15.517-2.539 6.21 114.539 15.8 73.914 42.6-40.06 23.133 7.9 4.514 40.06-23.133 62.065 35.829 99.586-9.028-.846-3.1 21.159 12.413 19.466-11.285-50.5-29.058 77.582-45.138 50.5 29.058 11.567-6.771-28.211-16.363 4.8 1.693 82.933-79.847 151.5-48.806-2.539-2.821 32.161 9.31 12.413-14.106-51.627-14.952-61.783-135.133 39.778-9.028-1.975-3.1 39.778 37.239 225.974 21.723 2.539-9.31zm-133.157-181.684l-69.4 40.342a156.647 156.647 0 0 1-40.907 16.081l42.317-74.76zm-155.163-41.471l77.3 20.594-44.293 77.861 5.078 1.128a225.666 225.666 0 0 1-39.5 4.8c-34.7.846-68.836-5.924-94.508-19.184l62.912-36.393c22.854-13.541 33.857-31.314 33.01-48.806zM826.263 561.824l-5.078-112.282 177.168 157.7-55.859 26.237 3.95-2.257zm112 73.632l-79.839 37.521-127.233-105.229 87.174-1.411zM658.4 678.9l18.9-56.705-5.36-.564 103.818-.282 71.942 59.527-18.055 31.879 1.693-3.1zM454.436 448.7l50.216-50.781 97.894 30.181 2.539-2.821 23.98 85.481a282.965 282.965 0 0 0-76.171-7.335l-44.856 1.411 4.514-1.693zm180.271-161.092l21.723 10.72 12.413 79.556-62.065 4.232 5.36-.564-27.365-79.274 51.909-11.849zm-7.9-25.108l50.5-36.957 18.338 14.388a32.026 32.026 0 0 0 6.489 4.232c15.8 9.31 38.932 13.259 61.5 10.72l13.259-1.693 27.929 35.547-2.822-2.822L688.027 324l-5.36-33.854-60.09-29.622zm-8.463-3.95L551.2 225.261c24.544-13.824 52.191-24.826 83.224-33.29l39.5 30.751-4.232-1.975zm-18.62 119.617l-98.457-56.987 73.35-16.645zm-3.95 13.259l8.181 29.622-93.944-29.058 31.6-31.879zM553.74 512.454c28.494-.846 56.705 2.539 81.813 10.156a172.328 172.328 0 0 1 37.239 16.081 119.288 119.288 0 0 1 17.491 12.131l73.632 60.937-168.14.564-165.319-95.355zm86.891-20.312l78.71 6.771 2.539 60.937-17.49-14.389a121.213 121.213 0 0 0-19.184-13.26 201.3 201.3 0 0 0-37.8-16.645zm92.252 69.118l-2.539-61.5 82.377 7.053 2.257 53.32zm-92.533-75.607l-.846 3.1-9.31-32.725 179.425-8.181 2.257 52.473zm-11.285-36.111l.564 3.1-16.645-60.09 134.569-9.028 64.6 57.551zm120.463-77.017l-53.32 3.668-7.617-48.242 2.821 2.821 115.949-38.65 56.987 73.068-114.821 7.335zm105.511-42.035l3.95 2.257 64.886-37.8L992.993 335l3.95-2.257a68.614 68.614 0 0 1-18.62 14.952l-62.912 36.675-33.289-19.18zm123-62.629c28.776 16.645 35.829 41.189 21.441 61.783l-131.464-75.89 42.6-24.826zm-142.466-61.22l-9.028-26.519 76.171 44.01-50.5 29.34 63.758 36.675L852.5 327.1l-59.526-76.171c30.468-6.485 49.37-25.104 42.599-44.288zm-42.881-67.425l23.98 69.682c5.078 14.952-11.567 29.9-37.521 32.725l-19.466 2.257c-16.08 1.975-32.443-1.128-44.01-7.617a45.944 45.944 0 0 1-4.8-3.1L666.3 198.46l3.672 2.54zm-8.181-23.98l7.053 20.312-3.668-2.539-60.937 30.751-21.723-56.141zm-89.711-5.078l22.569 58.4-54.169 27.363-46.549-36.393zm-202 96.201l78.428-63.476 53.038 41.471c-35.829 9.874-67.99 23.416-95.073 40.342-3.385 1.975-6.489 4.232-9.592 6.207zm39.5 30.468l97.612 48.524-135.134 30.469 1.975 3.1-27.647-16.081c5.078-9.871 22.287-38.364 63.194-66.012zm-179.143 59.527l38.932-22.569 145.571 84.07-4.8-1.693-84.917 86.045-61.783-57.551zm25.39 93.38l123.284 115.1-86.327 3.1h-1.693l-9.31.282-62.347 2.257 5.36-.564-38.085-107.2zm-143.879 27.083l64.04-12.131 37.522 105.793-61.783 2.257L232.976 414zM100.664 447l16.081-44.574 66.861-38.926 32.161 76.453zm73.35 69.118l5.36-.564-24.826-65.451 63.194-3.95-.564-3.1 29.622 70.811zm106.639 58.962a68.99 68.99 0 0 1-15.8-12.131l-37.52-38.929 167.858-5.642 16.927 9.874-106.075 57.269a108.766 108.766 0 0 1-25.39-10.438zm75.325 15.8a161.555 161.555 0 0 1-38.932-2.539l102.69-55.577 145.853 84.352-36.675 21.441 3.1-2.539-124.127-47.675zm23.416 71.939l5.36.564 25.672-66.861 114.821 44.292-67.708 39.5zm192.12 42.881l-86.045-19.184 111.153-64.6 69.964-.282-38.932 116.229zm45.7 108.9l-71.091-41.19 51.909-30.186 71.093 41.189zm156.009 29.9l-89.995 8.181-58.116-33.572 51.909-30.186zM756.3 812.342l-124.414-71.657 5.36.564 18.9-56.141 171.526 30.468-20.594 36.393 26.8 15.516zm119.335-34.418l-49.654-28.494 38.086-66.579-1.411 3.1 92.534 15.516zm85.2-82.1l-91.687-15.516 134-62.911 29.9 8.746zM1110.353 649l-131.748 42.032 64.04-61.783-4.8-1.693zm-14.106-22l-83.224-24.262-.846-.282-246.568-219.775 63.758-4.232-4.232 1.975 173.5 126.387 38.932-9.028zm-93.944-127.8L835.855 378.167l37.521-2.539 34.7 20.03c29.34 16.927 69.4 26.237 110.871 25.672l63.758 59.526zm34.7-78.71c32.161-2.821 62.347-11.285 85.481-24.826l17.773-10.156-3.1 2.539 126.952 50.5-132.03 70.811zm269.138 108.05l-164.191-15.8 92.816-49.934c6.771 1.693 24.544 6.489 40.625 15.8 18.054 10.714 34.135 26.794 30.75 49.928zm-632.5 145.853l25.108 4.8 13.259-7.617-16.645-9.592zm-363.648-63.199l-20.876-11.849L257.8 617.4l20.876 11.849zM1231.1 492.423l16.08 9.31 20.594-12.131-16.081-9.31zM413.529 715.858l40.625 23.416L492.8 716.7l-57.551-13.541zm721.368-141.9l33.572 19.184 12.977-7.335-33.572-19.184zM557.69 744.916l-14.106-8.181-21.159 12.413 14.106 8.181zM203.636 542.922l-33.572 19.466 11.567 6.771L220 552.232zm980.064-4.232l-45.42-5.36-36.675 21.159 27.365 15.8zM483.494 739.556l14.952 8.746 34.982-20.312-20.594-5.36zM315.353 380.988l29.34-16.927-9.593-22.851-44.292 25.672zm14.388-56.705l-10.72-27.929-35.829 20.876 29.622 16.927zM1065.5 515.557l27.365 15.8 16.645-9.592-27.365-15.8zM310.557 344.031L273.6 322.59 231 347.416l17.773 32.443zm268.574 242.337l17.769-10.439-49.652-28.494-17.773 10.438zm288.321-34.7l41.189 34.418 27.365-11-41.471-34.418zm133.44-157.42l31.879-18.62-27.647-16.08-31.879 18.62zm-859.886 95.919l-14.67-8.463-25.39 14.952 14.67 8.464zm-86.045-5.078l17.773 10.156 31.033-18.055-17.773-10.157zm1128.459 77.017l29.622 17.209 23.133-13.542-29.622-17.209zm-31.033 49.652l-15.234-8.746-18.053 10.439 15.234 8.746zm-111.716-216.382l13.259-7.617-10.72-6.207-13.26 7.617zm35.546-65.733l-14.67-3.1-18.055 28.212 14.67 3.1zm-431.072 80.4l30.75 17.773 13.824-8.181-30.75-17.773zm-183.938-27.08l29.622-17.209-27.083-15.8-29.622 17.209zm-88.866 76.453l30.75-17.773-17.209-9.874-30.751 17.773zm83.224-131.465l-56.423-32.725-15.234 8.746L440.33 336.7zm-22.288 154.316l17.773-10.438-25.108-22-24.262 14.101zm-70.529 4.514l22.287 12.977 57.834-2.257-49.369-28.493zm390.729-290.86l-20.877-14.67-37.52 17.773 20.877 14.67zm92.816 547.867l33.007 19.184 14.952-15.234-37.521-21.723zm-50.781-564.23l-9.028-19.184-13.824 2.257 9.028 19.184zM431.3 410.046l14.106 8.181 23.415-13.542-14.103-8.185zm483.263 312.3l-26.519-15.234L871.4 716.7l26.519 15.234zM521.3 553.078l17.77-10.438-21.44-12.413-17.773 10.438zM119.848 434.872l40.342-.846 5.36-3.1-19.466-11.285zm47.96-27.929l-11.285 6.489 23.133 13.259 11.285-6.489zm618.4 331.2l-33.859-19.463-14.949 8.745 33.854 19.466zM687.463 759.3l49.37 28.494 19.184-11-49.37-28.494zm62.912-.282l32.443 18.62 11.285-6.489-32.443-18.62zM181.913 394.53l-17.491-10.156-28.212 16.362 17.49 10.156zm194.377 31.6l-23.133-13.259-14.957 8.742 23.133 13.259zm357.158 284.65l-39.5-8.181-23.13 13.541 26.8 15.516zm27.083-276.755l11.285-6.489-9.592-5.642-11.285 6.489zm-43.164 45.985l35.264 2.821 3.1-14.106-35.264-2.539zm25.672-266.6l14.67 10.438 33.572-16.081-14.67-10.438zm351.515 216.382l-17.491 10.156 37.8 21.723 17.491-10.156zm-373.8-14.106l12.977 7.335 20.594-11.849-12.977-7.335zm-63.194 60.373l25.673 1.975 1.975-8.746-25.672-1.975zm534.326 25.955l11.284 6.489 14.952-8.746-11.285-6.489zm-.564-77.864l-41.753 24.262 17.773 10.156 41.753-24.262zm-60.657 62.35l8.746 5.078 20.312-11.849-8.745-5.078zm-143.314-33.008l28.776 16.645 15.8-9.31-28.776-16.645zm-78.992-185.914l24.262-14.106-15.234-8.746-24.262 14.106zm273.369 150.931l-32.443-18.62-18.337 10.72 32.443 18.62zM974.656 300.867l15.234-8.746-47.113-27.083-15.234 8.746zm-82.378-11.849l-20.594-11.848-26.8 15.516 20.594 11.849zm73.35 40.342l-36.957-21.44-9.31 5.36 36.957 21.441zm-9.874 17.209L932.9 333.311l-18.62 11 22.851 13.259zm-53.038-.282l-16.081-9.31-10.155 5.923 16.081 9.31z" data-name="Path 20069" transform="translate(-43.959 -79.125)"/>
                </g>
            </g>
            <g id="Group_1007" data-name="Group 1007" transform="translate(112.81 289.168)">
                <path id="Path_20071" fill="none" stroke="#314aef" stroke-miterlimit="10" stroke-width="2px" d="M53.9 335.26l315.687-11.285s118.488-9.31 146.982 8.181L482.15 200.127 754.673 183.2s42.6 29.9 82.942 39.5c40.342 9.874 110.871 15.234 173.5-25.955" data-name="Path 20071" transform="translate(-36.938 -182.354)"/>
                <g id="Group_1005" data-name="Group 1005" transform="translate(961.165)">
                    <path id="Path_20072" d="M403.74 202.52a19.481 19.481 0 0 1-7.053-1.128 5.672 5.672 0 0 1-2.257-1.128c-2.821-1.693-4.514-3.95-4.8-6.489a6.934 6.934 0 0 1 2.539-6.207c2.539-2.257 6.771-3.667 11.567-3.667a19.478 19.478 0 0 1 7.053 1.128 5.67 5.67 0 0 1 2.257 1.128c2.821 1.693 4.514 3.95 4.8 6.489a6.934 6.934 0 0 1-2.539 6.206c-2.821 2.539-7.053 3.667-11.567 3.667z" class="cls-4" data-name="Path 20072" transform="translate(-386.777 -181.079)"/>
                    <path id="Path_20073" d="M405.55 188.542a16.082 16.082 0 0 1 6.207 1.128c.564.282 1.411.564 1.975.846 3.668 2.257 4.514 5.642 1.693 8.181-2.257 1.975-5.924 3.1-9.592 3.1a16.082 16.082 0 0 1-6.207-1.128c-.564-.282-1.411-.564-1.975-.846-3.667-2.257-4.514-5.642-1.693-8.181 1.975-1.975 5.642-3.1 9.592-3.1m0-5.642c-5.36 0-10.156 1.693-13.259 4.514a10.437 10.437 0 0 0-3.668 8.746c.282 3.385 2.539 6.489 6.207 8.463a19.669 19.669 0 0 0 11 2.821c5.36 0 10.156-1.693 13.259-4.514 2.539-2.539 3.95-5.36 3.667-8.746s-2.539-6.489-6.207-8.463a26.208 26.208 0 0 0-2.821-1.411 27.7 27.7 0 0 0-8.181-1.411z" class="cls-5" data-name="Path 20073" transform="translate(-388.587 -182.9)"/>
                </g>
                <g id="Group_1006" data-name="Group 1006" transform="translate(0 140.775)">
                    <path id="Path_20074" d="M63.04 252.52a19.477 19.477 0 0 1-7.053-1.128 5.67 5.67 0 0 1-2.257-1.128c-2.821-1.693-4.514-3.95-4.8-6.489a6.934 6.934 0 0 1 2.539-6.206c2.539-2.257 6.771-3.668 11.567-3.668a19.48 19.48 0 0 1 7.053 1.128 5.671 5.671 0 0 1 2.257 1.128c2.821 1.693 4.514 3.95 4.8 6.489a6.934 6.934 0 0 1-2.539 6.207 18.871 18.871 0 0 1-11.567 3.667z" class="cls-4" data-name="Path 20074" transform="translate(-46.077 -230.797)"/>
                    <path id="Path_20075" d="M64.85 238.442a16.082 16.082 0 0 1 6.207 1.128c.564.282 1.411.564 1.975.846 3.668 2.257 4.514 5.642 1.693 8.181-2.257 1.975-5.924 3.1-9.592 3.1a16.081 16.081 0 0 1-6.207-1.128c-.564-.282-1.411-.564-1.975-.846-3.667-2.257-4.514-5.642-1.693-8.181 2.257-1.975 5.924-3.1 9.592-3.1m0-5.642c-5.36 0-10.156 1.693-13.259 4.514a10.437 10.437 0 0 0-3.667 8.746c.282 3.385 2.539 6.489 6.207 8.463a26.2 26.2 0 0 0 2.821 1.411 26.21 26.21 0 0 0 8.181 1.411c5.36 0 10.156-1.693 13.259-4.514 2.539-2.539 3.95-5.36 3.667-8.746s-2.539-6.489-6.207-8.463a26.215 26.215 0 0 0-2.821-1.411 26.212 26.212 0 0 0-8.181-1.411z" class="cls-5" data-name="Path 20075" transform="translate(-47.887 -232.8)"/>
                </g>
            </g>
            <path id="Path_20076" fill="#ffdb27" d="M215.71 161.8a15.039 15.039 0 0 0-6.862 11.907c0 4.44 3.027 6.054 6.862 4.036a15.039 15.039 0 0 0 6.862-11.907c-.001-4.442-3.028-6.056-6.862-4.036zm0-20.585c-12.916 7.467-23.41 25.63-23.41 40.362a28.121 28.121 0 0 0 1.009 6.66c2.018 8.274 7.063 19.172 11.5 28.253s8.476 16.145 8.476 16.145l2.422 4.44 2.422-7.265s5.247-15.136 10.292-32.088c2.624-8.476 5.247-17.356 7.063-24.823 1.009-3.834 1.816-7.265 2.422-10.494a42.177 42.177 0 0 0 1.009-7.669c.205-14.936-10.289-20.99-23.205-13.523zm17.154 22.8c-1.816 9.687-6.862 26.235-11.1 40.362-2.22 7.063-4.238 13.319-5.852 17.961v.2c-2.422-4.44-6.256-11.7-9.687-19.374-2.22-4.843-4.238-9.687-5.852-14.127a49.085 49.085 0 0 1-1.816-6.054 22.6 22.6 0 0 1-.605-4.44c0-5.651 2.018-11.907 5.247-17.557s7.669-10.494 12.714-13.319c4.843-2.825 9.485-3.027 12.714-1.211s5.247 5.852 5.247 11.5c-.203 1.017-.607 3.237-1.01 6.062z" data-name="Path 20076" transform="translate(342.471 70.943)"/>
        </g>
    </g>
</svg>
