<svg xmlns="http://www.w3.org/2000/svg" width="44.047" height="42.773" viewBox="0 0 44.047 42.773">
    <defs>
        <style>
            .cls-1{fill:#fff;stroke:#fff;stroke-width:.3px}
        </style>
    </defs>
    <g id="vessel" transform="translate(-12.204 -19.26)">
        <path id="Path_20013" d="M103.622 272.54h-5.587a1.977 1.977 0 0 0-1.975 1.975v1.731a.539.539 0 0 0 .539.539h7.024a.539.539 0 0 0 .539-.539v-3.167a.539.539 0 0 0-.54-.539zm-5.333 3.167h-1.152v-1.192a.9.9 0 0 1 .9-.9h.255zm2.564 0h-1.486v-2.09h1.486zm2.231 0h-1.154v-2.09h1.153z" class="cls-1" data-name="Path 20013" transform="translate(-76.187 -230.409)"/>
        <path id="Path_20014" d="M115.892 366.82h-.523a.539.539 0 1 0 0 1.077h.523a.539.539 0 1 0 0-1.077z" class="cls-1" data-name="Path 20014" transform="translate(-93.272 -316.226)"/>
        <path id="Path_20015" d="M138.57 367.359a.539.539 0 0 0 .539.539h15.217a.539.539 0 1 0 0-1.077h-15.217a.539.539 0 0 0-.539.538z" class="cls-1" data-name="Path 20015" transform="translate(-114.881 -316.226)"/>
        <path id="Path_20016" d="M277.279 206.965a.539.539 0 0 0 .539-.539v-3.9a.539.539 0 1 0-1.077 0v3.9a.539.539 0 0 0 .538.539z" class="cls-1" data-name="Path 20016" transform="translate(-240.649 -166.192)"/>
        <path id="Path_20017" d="M313.6 206.965a.539.539 0 0 0 .539-.539v-3.9a.539.539 0 1 0-1.077 0v3.9a.539.539 0 0 0 .538.539z" class="cls-1" data-name="Path 20017" transform="translate(-273.709 -166.192)"/>
        <path id="Path_20018" d="M349.929 206.965a.539.539 0 0 0 .539-.539v-3.9a.539.539 0 1 0-1.077 0v3.9a.539.539 0 0 0 .538.539z" class="cls-1" data-name="Path 20018" transform="translate(-306.778 -166.192)"/>
        <path id="Path_20019" d="M80.049 455.831a3.345 3.345 0 0 1-2.46-1.089 4.384 4.384 0 0 0-6.334 0 3.325 3.325 0 0 1-4.921 0 4.383 4.383 0 0 0-6.334 0 3.325 3.325 0 0 1-4.921 0 4.382 4.382 0 0 0-6.332 0 3.325 3.325 0 0 1-4.922 0 4.378 4.378 0 0 0-3.167-1.352.539.539 0 1 0 0 1.077 3.346 3.346 0 0 1 2.461 1.089 4.383 4.383 0 0 0 6.333 0 3.324 3.324 0 0 1 4.92 0 4.383 4.383 0 0 0 6.333 0 3.325 3.325 0 0 1 4.922 0 4.383 4.383 0 0 0 6.333 0 3.325 3.325 0 0 1 4.922 0 4.376 4.376 0 0 0 3.166 1.352.539.539 0 1 0 0-1.077z" class="cls-1" data-name="Path 20019" transform="translate(-25.268 -395.026)"/>
        <path id="Path_20020" d="M55.56 47.506h-.894v-2.227a.539.539 0 0 0-.539-.539h-1.208V19.949a.539.539 0 0 0-.539-.539h-2.539a.539.539 0 0 0-.539.539v1.74H38.773a.539.539 0 0 0-.539.539v1.822a.539.539 0 0 0 .539.539h.518v1.57a.5.5 0 0 1-.242.424 1.535 1.535 0 0 0 .386 2.806V30.7l-6.149 3.533-.368.372a.978.978 0 0 0-.125.478v6.665a.539.539 0 0 0 .539.539h13.116a.539.539 0 0 0 .539-.539v-6.66a.978.978 0 0 0-.129-.485l-.007-.013a.978.978 0 0 0-.352-.357L40.512 30.7v-1.42a1.536 1.536 0 0 0 .853-1.34.553.553 0 0 0-.488-.573.539.539 0 0 0-.588.536.459.459 0 1 1-.692-.4 1.577 1.577 0 0 0 .772-1.351v-1.57H49.3V44.74H30.394v-5.4a.539.539 0 0 0-.539-.539H28.25v-6.834a.539.539 0 0 0-.539-.539H24.28a.539.539 0 0 0-.539.539V38.8h-.414a7.159 7.159 0 0 0-6.112 3.465l-3.134 5.238H12.9a.539.539 0 0 0-.483.778l3.151 6.365h-.176a.539.539 0 1 0 0 1.077 3.245 3.245 0 0 1 .943.127 4.075 4.075 0 0 1 1.518.962 4.384 4.384 0 0 0 6.333 0 3.324 3.324 0 0 1 4.92 0 4.384 4.384 0 0 0 6.333 0 3.326 3.326 0 0 1 4.922 0 4.384 4.384 0 0 0 6.333 0 3.326 3.326 0 0 1 4.922 0 5.935 5.935 0 0 0 1.395.983 4.09 4.09 0 0 0 1.771.369.539.539 0 0 0 0-1.077 3.316 3.316 0 0 1-.9-.117l2.205-8.794a.539.539 0 0 0-.522-.67zm-9.65-6.3H33.87v-5.841h12.04zm-5.94-9.574l4.5 2.654h-9.12zm10.41-11.145h1.462V44.74H50.38zM39.312 23.51v-.745H49.3v.745zm-14.493 8.995h2.354V34h-2.354zm0 2.573h2.354V38.8h-2.354zm-6.678 7.743a6.076 6.076 0 0 1 5.187-2.941h5.989v7.625H15.338zm34.752 13.647c-.2-.145-.381-.305-.572-.471a4.385 4.385 0 0 0-6.334 0 3.325 3.325 0 0 1-4.921 0 4.385 4.385 0 0 0-6.334 0 3.325 3.325 0 0 1-4.921 0 4.383 4.383 0 0 0-6.332 0 3.326 3.326 0 0 1-4.921 0 5.44 5.44 0 0 0-1.663-1.1l-3.128-6.319h19.984a.539.539 0 1 0 0-1.077h-3.357v-1.683h23.195v1.688H35.965a.539.539 0 1 0 0 1.077H54.87z" class="cls-1" data-name="Path 20020"/>
    </g>
</svg>
