<svg xmlns="http://www.w3.org/2000/svg" width="171.128" height="177.122" viewBox="0 0 171.128 177.122">
  <defs>
    <style>
      .cls-1, .cls-15 {
        opacity: 0.2;
      }

      .cls-2 {
        fill: #f5f5f5;
      }

      .cls-15, .cls-3 {
        fill: #e0e0e0;
      }

      .cls-4 {
        fill: #b16668;
      }

      .cls-5 {
        fill: #37474f;
      }

      .cls-6 {
        fill: #263238;
      }

      .cls-7 {
        fill: #003d72;
      }

      .cls-8 {
        opacity: 0.1;
      }

      .cls-9 {
        fill: #9a4a4d;
      }

      .cls-10 {
        fill: #314aef;
      }

      .cls-11 {
        opacity: 0.05;
      }

      .cls-12 {
        fill: #ffa8a7;
      }

      .cls-13 {
        fill: #f28f8f;
      }

      .cls-14 {
        fill: #f0f0f0;
      }

      .cls-16 {
        fill: #e6e6e6;
      }

      .cls-17 {
        opacity: 0.5;
      }

      .cls-18 {
        fill: #fff;
      }
    </style>
  </defs>
  <g id="Welcome-amico" transform="translate(-29.66 -24.49)">
    <g id="freepik--Floor--inject-1--inject-36" class="cls-1" transform="translate(29.66 123.673)">
      <path id="freepik--floor--inject-1--inject-36-2" data-name="freepik--floor--inject-1--inject-36" class="cls-2" d="M54.722,335.944c33.416,15.21,87.589,15.21,121.005,0s33.412-39.9,0-55.12-87.589-15.21-121.005,0S21.306,320.733,54.722,335.944Z" transform="translate(-29.66 -269.412)"/>
    </g>
    <g id="freepik--Shadows--inject-1--inject-36" class="cls-1" transform="translate(36.294 150.489)">
      <ellipse id="freepik--Shadow--inject-1--inject-36" class="cls-3" cx="19.934" cy="9.501" rx="19.934" ry="9.501" transform="translate(116.82)"/>
      <ellipse id="freepik--shadow--inject-1--inject-36-2" data-name="freepik--shadow--inject-1--inject-36" class="cls-3" cx="19.934" cy="9.501" rx="19.934" ry="9.501" transform="translate(0 4.957)"/>
    </g>
    <g id="freepik--character-2--inject-1--inject-36" transform="translate(33.478 35.79)">
      <rect id="Rectangle_787" data-name="Rectangle 787" class="cls-4" width="3.654" height="6.256" transform="translate(14.559 127.144) rotate(180)"/>
      <path id="Path_19431" data-name="Path 19431" class="cls-4" d="M105.72,347.589l3.654.125.183-6.619-3.838-.125Z" transform="translate(-79.874 -225.179)"/>
      <path id="Path_19432" data-name="Path 19432" class="cls-5" d="M68.258,238.714c0,3.487.183,23.7.183,23.7-.086,1-1.049,2.789-1.127,6.4-.109,5.242-.3,17.383-.3,17.383a4.813,4.813,0,0,0,4.068.078s3.873-17.266,4.528-22.445c.569-4.532,1.56-16.837,1.56-16.837l2.792,15.312a20.8,20.8,0,0,0-.472,5.807c.172,2.4,2.395,14.43,2.395,14.43a5,5,0,0,0,4.22.324s.218-18.877.257-21.061c.051-2.512-1.045-24.114-1.045-24.114Z" transform="translate(-56.261 -162.186)"/>
      <path id="Path_19433" data-name="Path 19433" class="cls-6" d="M69.726,364.618V364.1c.195,0,.316.191.39.659a9.943,9.943,0,0,0,.211,1.034,12.553,12.553,0,0,0,.64,1.872,11.278,11.278,0,0,0,2.133,3.233,14.334,14.334,0,0,1,1.135,1.307c.218.39.3,1.486-.078,1.736a6.34,6.34,0,0,1-4.957.511,2.984,2.984,0,0,1-2.149-2.414c-.055-.339-.035-.682-.074-1.022a4.832,4.832,0,0,0-.913-2.122,6.17,6.17,0,0,1-.7-1.17,3.737,3.737,0,0,1,.133-2.34c.172-.647.355-1.357.573-1.295v.39a2.9,2.9,0,0,0,1.829.616C68.435,365.133,69.73,365.024,69.726,364.618Z" transform="translate(-55.167 -239.276)"/>
      <path id="Path_19434" data-name="Path 19434" class="cls-6" d="M107.727,355.025c.187,0,.343.277.78.729a8.07,8.07,0,0,0,2.149,1.56c1.369.686,4.029,1.739,5.23,2.282.753.339.718,1.248-.058,1.763a7.07,7.07,0,0,1-4.906.39c-1.229-.273-2.828-1.408-3.838-1.346s-2.906.047-3.651-.468-.449-1.615-.238-2.559c.23-1.034.519-2.64.858-2.57v.355c.441.667,2.707.936,3.674.449Z" transform="translate(-78.188 -233.618)"/>
      <path id="Path_19435" data-name="Path 19435" class="cls-6" d="M93,256.987a13.544,13.544,0,0,0,5.07-2.917,10.553,10.553,0,0,1-3.9,3.549l1.412,13.619Z" transform="translate(-72.115 -172.171)"/>
      <path id="Path_19436" data-name="Path 19436" class="cls-4" d="M104.193,192.719c-2.387-7.948-1.915-14.68-2.363-16.739l6.119,8.545a75.063,75.063,0,0,0,1.252,8.385,48.905,48.905,0,0,0,2.824,9.181,1.911,1.911,0,0,0,.995.913,10.659,10.659,0,0,1,2.617,1.751c.725.538,1.275.608,1.232.827a1.03,1.03,0,0,1-1.217.683,7.149,7.149,0,0,1-1.615-.546,9.43,9.43,0,0,0,1.95,2.34c1.771,1.541,2.024,2.629-.917,3.163-1.845.339-3.51-.546-5.612-4.376a33.391,33.391,0,0,1-2.079-4.337C105.976,198.608,104.915,195.126,104.193,192.719Z" transform="translate(-77.501 -124.537)"/>
      <path id="Path_19437" data-name="Path 19437" class="cls-7" d="M100.56,170.91c1.9.335,3.779.78,4.945,2.605s2.851,10.441,2.851,10.441A9.886,9.886,0,0,1,103.1,185.6Z" transform="translate(-76.726 -121.445)"/>
      <path id="Path_19438" data-name="Path 19438" class="cls-8" d="M100.56,170.91c1.9.335,3.779.78,4.945,2.605s2.851,10.441,2.851,10.441A9.886,9.886,0,0,1,103.1,185.6Z" transform="translate(-76.726 -121.445)"/>
      <path id="Path_19439" data-name="Path 19439" class="cls-9" d="M53.8,179.12c-1.275.909-8,16.1-8.26,17.161-.347,1.439-.187,3.05.519,3.572s2.262-.226,3.077-1.022c1.56-1.56,7.02-12.925,7.02-12.925Z" transform="translate(-43.059 -126.453)"/>
      <path id="Path_19440" data-name="Path 19440" class="cls-7" d="M65.5,170.811c-3.12.749-7.02,2-8.413,4.856s-3.51,7.492-3.51,7.492a12.586,12.586,0,0,0,5.133,3.034l1.56-2.73-.23,14.43c2.516,1.833,11.755,2.831,17.051-1.037,0,0-.647-17.3-.647-20s-1.5-5.928-5.628-6.17Z" transform="translate(-48.069 -121.311)"/>
      <path id="Path_19441" data-name="Path 19441" class="cls-8" d="M70.708,198.116s1.56-2.695,1.892-3.346l-1.95,6.63Z" transform="translate(-58.482 -135.999)"/>
      <circle id="Ellipse_780" data-name="Ellipse 780" class="cls-6" cx="5.019" cy="5.019" r="5.019" transform="translate(18.327 32.457)"/>
      <path id="Path_19442" data-name="Path 19442" class="cls-6" d="M77.05,149.32a43.143,43.143,0,0,0,1.143,4.45,1.724,1.724,0,0,0,1,.807l-.055-2.687Z" transform="translate(-62.386 -108.275)"/>
      <path id="Path_19443" data-name="Path 19443" class="cls-6" d="M76.694,135.261a1.892,1.892,0,0,0-1.56.55c-.667.682-.293,2.828.538,4.926l1.533.175Z" transform="translate(-61.008 -99.692)"/>
      <path id="Path_19444" data-name="Path 19444" class="cls-4" d="M76.639,137.25c-.308.183-.745-.41-1.123-.8a1.336,1.336,0,0,0-2.235.359,2.815,2.815,0,0,0,1.521,3.385c1.677.526,1.95-.55,1.95-.55l.121,6.24h0c2.087,2.676,7.878,2.449,5.46-.343v-1.845a10.405,10.405,0,0,0,2.262.117,3.083,3.083,0,0,0,2.387-2.5c.6-2.145.831-3.9.32-8.1-.558-4.626-5.94-4.68-8.845-2.843S76.639,137.25,76.639,137.25Z" transform="translate(-59.981 -96.026)"/>
      <path id="Path_19445" data-name="Path 19445" class="cls-6" d="M80.087,135.48c-.156,0-.741-.971-1.123-1.318-.53-.484.152-4.852.152-4.852a2.114,2.114,0,0,1,.367-2.34c.725-.8,1.739-1.778,5.031-1.388,2.34.281,4.906,1.01,6.973,0a3.51,3.51,0,0,1-1.225,3.736,7.154,7.154,0,0,1-2.73.722,29.043,29.043,0,0,1-5.46-.105c-.569-.078-.69.476-1,1.985C80.832,133.226,80.606,135.472,80.087,135.48Z" transform="translate(-63.43 -93.741)"/>
      <path id="Path_19446" data-name="Path 19446" class="cls-6" d="M76.776,133.677l-1.856-1a1.026,1.026,0,0,1,1.4-.464A1.108,1.108,0,0,1,76.776,133.677Z" transform="translate(-61.086 -97.769)"/>
      <path id="Path_19447" data-name="Path 19447" class="cls-9" d="M88.811,162.563a21.162,21.162,0,0,1-3.717-1.065,3.186,3.186,0,0,1-1.334-1.318,4.372,4.372,0,0,0,.757,1.56c.706.9,4.29,1.56,4.29,1.56Z" transform="translate(-66.479 -114.9)"/>
      <path id="Path_19448" data-name="Path 19448" class="cls-6" d="M93.28,147.1a.55.55,0,1,1-.546-.573.566.566,0,0,1,.546.573Z" transform="translate(-71.615 -106.573)"/>
      <path id="Path_19449" data-name="Path 19449" class="cls-6" d="M91.553,142.087l-1.17.655a.71.71,0,0,1,.273-.944.655.655,0,0,1,.9.289Z" transform="translate(-70.469 -103.64)"/>
      <path id="Path_19450" data-name="Path 19450" class="cls-9" d="M96.006,157.79l1.264.472a.659.659,0,0,1-.858.417A.7.7,0,0,1,96.006,157.79Z" transform="translate(-73.924 -113.442)"/>
      <path id="Path_19451" data-name="Path 19451" class="cls-6" d="M105.956,142.1l-1.076-.827a.647.647,0,0,1,.936-.144A.714.714,0,0,1,105.956,142.1Z" transform="translate(-79.361 -103.196)"/>
      <path id="Path_19452" data-name="Path 19452" class="cls-6" d="M105.058,146.707a.554.554,0,1,1-.554-.577A.566.566,0,0,1,105.058,146.707Z" transform="translate(-78.795 -106.329)"/>
      <path id="Path_19453" data-name="Path 19453" class="cls-9" d="M99.58,146.26l.179,3.323,1.736-.593Z" transform="translate(-76.129 -106.409)"/>
      <path id="Path_19454" data-name="Path 19454" class="cls-5" d="M61.585,156.32a.205.205,0,0,1-.2-.214V88.8a.2.2,0,1,1,.39,0v67.3A.205.205,0,0,1,61.585,156.32Z" transform="translate(-52.833 -77.229)"/>
      <path id="Path_19455" data-name="Path 19455" class="cls-7" d="M61.03,99.12h0a4.721,4.721,0,0,0-1.56-2.34,4.466,4.466,0,0,0-1.42,2.34h0a.741.741,0,0,0,.433.608,2.3,2.3,0,0,0,2.094,0,.741.741,0,0,0,.437-.608Z" transform="translate(-50.796 -85.159)"/>
      <path id="Path_19456" data-name="Path 19456" class="cls-8" d="M61.03,99.12h0a4.721,4.721,0,0,0-1.56-2.34,4.466,4.466,0,0,0-1.42,2.34h0a.741.741,0,0,0,.433.608,2.3,2.3,0,0,0,2.094,0,.741.741,0,0,0,.437-.608Z" transform="translate(-50.796 -85.159)"/>
      <path id="Path_19457" data-name="Path 19457" class="cls-10" d="M56.825,53.362c0,4.8-3.768,10.858-8.689,12-4.961-1.385-8.686-7.207-8.686-12s3.089-9.282,8.689-9.282S56.825,48.561,56.825,53.362Z" transform="translate(-39.45 -53.08)"/>
      <path id="Path_19458" data-name="Path 19458" class="cls-11" d="M39.77,61.13a10.741,10.741,0,0,0-.32,2.633c0,4.8,3.736,10.62,8.689,12,4.091-.956,7.383-5.3,8.377-9.5h0a7.494,7.494,0,0,1-6.993,4.977C43.826,71.614,39.228,65.1,39.77,61.13Z" transform="translate(-39.45 -63.48)"/>
      <path id="Path_19459" data-name="Path 19459" class="cls-4" d="M44.478,192.976c-1.037-.3-2.1-3.4-2.024-5.39s2.753-10.593,3.12-12.246c.417-1.825.39-3.214.761-4.161a4.8,4.8,0,0,1,2.34-2.168,23.7,23.7,0,0,1,3.182-1.287c.842-.168,1.17.39,1.076.831s-.39,1.56-.468,2.168a5.273,5.273,0,0,1-.667,2.215c-.441.706-2.239,2.395-2.309,3.335s-.589,6.041-.885,9.75c-.246,3.034-.55,4.29-1.209,5.094S45.285,193.2,44.478,192.976Z" transform="translate(-41.28 -119.482)"/>
    </g>
    <g id="freepik--character-1--inject-1--inject-36" transform="translate(154.27 30.49)">
      <rect id="Rectangle_788" data-name="Rectangle 788" class="cls-12" width="3.705" height="6.342" transform="translate(25.12 122.678)"/>
      <path id="Path_19460" data-name="Path 19460" class="cls-12" d="M384.065,333.682l-3.7.125-.183-6.708,3.884-.129Z" transform="translate(-368.083 -211.339)"/>
      <path id="Path_19461" data-name="Path 19461" class="cls-7" d="M392.451,217.212c0,3.537.554,24.781.554,24.781.086,1.018,1.065,2.828,1.143,6.494.109,5.316-.351,19.083-.351,19.083a4.879,4.879,0,0,1-4.122.082s-3.268-18.958-3.931-24.22c-.577-4.59-1.56-17.067-1.56-17.067l-2,15.008a21.083,21.083,0,0,1,.46,5.885c-.176,2.434-1.6,14.742-1.6,14.742a5.07,5.07,0,0,1-4.29.324s-1.872-18.721-1.915-20.951c-.047-2.547,1.232-28.533,1.232-28.533Z" transform="translate(-364.823 -141.721)"/>
      <path id="Path_19462" data-name="Path 19462" class="cls-12" d="M362.274,179.133c2.387-7.952,1.915-14.684,2.363-16.743l-6.119,8.545a75.2,75.2,0,0,1-1.252,8.389,48.906,48.906,0,0,1-2.824,9.181,1.9,1.9,0,0,1-.995.909,10.562,10.562,0,0,0-2.617,1.755c-.725.534-1.275.6-1.232.823a1.03,1.03,0,0,0,1.217.667,7.209,7.209,0,0,0,1.615-.546,9.481,9.481,0,0,1-1.95,2.34c-1.771,1.537-2.024,2.625.917,3.159,1.845.339,3.51-.546,5.612-4.376a33.573,33.573,0,0,0,2.09-4.345C360.491,185,361.552,181.536,362.274,179.133Z" transform="translate(-349.162 -110.947)"/>
      <path id="Path_19463" data-name="Path 19463" class="cls-3" d="M377.912,157.32c-1.9.335-3.775.78-4.941,2.605s-2.851,10.441-2.851,10.441a9.886,9.886,0,0,0,5.257,1.646Z" transform="translate(-361.946 -107.855)"/>
      <path id="Path_19464" data-name="Path 19464" class="cls-13" d="M419.945,165.54c1.275.9,8,16.1,8.26,17.161.343,1.439.187,3.054-.519,3.573s-2.262-.226-3.077-1.022c-1.56-1.56-7.04-12.921-7.04-12.921Z" transform="translate(-390.89 -112.869)"/>
      <path id="Path_19465" data-name="Path 19465" class="cls-14" d="M388.539,157.084c3.1.749,7.02,2,8.409,4.856s3.51,7.488,3.51,7.488a12.582,12.582,0,0,1-5.136,3.034l-1.56-2.73.23,14.411c-2.516,1.833-11.755,2.828-17.051-1.037,0,0,.651-17.3.651-20s1.494-5.928,5.628-6.17Z" transform="translate(-366.106 -107.623)"/>
      <path id="Path_19466" data-name="Path 19466" class="cls-3" d="M417.042,184.476s-1.56-2.7-1.892-3.346l1.95,6.63Z" transform="translate(-389.414 -122.379)"/>
      <path id="Path_19467" data-name="Path 19467" class="cls-6" d="M404.409,355.756v-.53c-.355.156-1.17,3.3-2.648,4.637-1.17,1.065-2.761,2.3-3.167,3.483s2.219,1.919,3.311,1.724c1.268-.222,3.467-1.115,4.017-1.95s.811-2.048,1.26-2.652,1.482-1.287,1.724-1.989a4.508,4.508,0,0,0-.211-1.95c-.187-.722-.359-1.377-.581-1.314v.39a2.937,2.937,0,0,1-1.853.624C405.719,356.3,404.405,356.169,404.409,355.756Z" transform="translate(-379.289 -228.565)"/>
      <path id="Path_19468" data-name="Path 19468" class="cls-6" d="M366.758,341.176c-.191,0-.347.281-.78.737a7.986,7.986,0,0,1-2.176,1.56c-1.388.694-4.083,1.763-5.3,2.313-.78.343-.725,1.264.062,1.786a7.114,7.114,0,0,0,4.973.39c1.244-.281,2.867-1.427,3.9-1.369s2.945.051,3.7-.472.456-1.638.242-2.594c-.234-1.045-.526-2.676-.874-2.6v.359c-.445.675-2.73.948-3.721.452Z" transform="translate(-354.517 -219.851)"/>
      <path id="Path_19469" data-name="Path 19469" class="cls-8" d="M390.75,242.9a13.756,13.756,0,0,1-5.16-2.956,10.687,10.687,0,0,0,3.955,3.6l-.632,13.069Z" transform="translate(-371.383 -158.252)"/>
      <path id="Path_19470" data-name="Path 19470" class="cls-6" d="M408.879,121.98a1.837,1.837,0,0,1,1.525.534c.655.671.519,1.911,0,4.758l-2.024.234Z" transform="translate(-385.284 -86.29)"/>
      <path id="Path_19471" data-name="Path 19471" class="cls-6" d="M376.464,119.305a3.178,3.178,0,0,1-1.268-.257c-.62-.359-.78.347-.445.959a2.886,2.886,0,0,0,2.34,1.56c0-.086.581-1.56.581-1.56Z" transform="translate(-364.667 -84.45)"/>
      <path id="Path_19472" data-name="Path 19472" class="cls-12" d="M390.531,123.895c.3.179.729-.39,1.1-.78a1.3,1.3,0,0,1,2.18.351c.6,1.271-.78,3.019-1.6,3.588a1.434,1.434,0,0,1-1.681.148l-.214,4.953a5.286,5.286,0,0,1-3.986,3.023c-2.909.394-2.309-2-1.353-3.179v-1.8a7.079,7.079,0,0,1-2.211.113,3.264,3.264,0,0,1-2.157-2.215,17.607,17.607,0,0,1-.488-8.155c.741-4.5,5.811-4.571,8.651-2.785S390.531,123.895,390.531,123.895Z" transform="translate(-367.884 -82.69)"/>
      <path id="Path_19473" data-name="Path 19473" class="cls-6" d="M388.722,119.547c.148,0,.725-.952,1.1-1.291.519-.472-.152-4.743-.152-4.743a2.914,2.914,0,0,0-.5-2.695c-1.026-1.076-3.011-.893-4.462-.944a13.018,13.018,0,0,1-5.187-1.041c-2.059-.9-2.215-1-2.473-.1a5.033,5.033,0,0,0,.881,4.368l1.022.39a5.006,5.006,0,0,0,2.477.722,28.169,28.169,0,0,0,5.324-.1c.558-.074.679.464.979,1.95C387.993,117.34,388.211,119.536,388.722,119.547Z" transform="translate(-366.075 -77.835)"/>
      <path id="Path_19474" data-name="Path 19474" class="cls-6" d="M409.472,120.4l1.817-.975a1,1,0,0,0-1.373-.456A1.084,1.084,0,0,0,409.472,120.4Z" transform="translate(-385.881 -84.391)"/>
      <path id="Path_19475" data-name="Path 19475" class="cls-13" d="M393,148.642a20.687,20.687,0,0,0,3.635-1.041,3.089,3.089,0,0,0,1.3-1.291,4.23,4.23,0,0,1-.741,1.521c-.686.881-4.2,1.529-4.2,1.529Z" transform="translate(-375.903 -101.139)"/>
      <path id="Path_19476" data-name="Path 19476" class="cls-6" d="M394.65,133.3a.542.542,0,1,0,.542-.562.55.55,0,0,0-.542.562Z" transform="translate(-376.909 -92.861)"/>
      <path id="Path_19477" data-name="Path 19477" class="cls-6" d="M396.37,127.877l1.17.64a.69.69,0,0,0-.269-.92.644.644,0,0,0-.9.281Z" transform="translate(-377.958 -89.672)"/>
      <path id="Path_19478" data-name="Path 19478" class="cls-13" d="M392.832,143.8l-1.232.468a.647.647,0,0,0,.839.41A.686.686,0,0,0,392.832,143.8Z" transform="translate(-375.049 -99.608)"/>
      <path id="Path_19479" data-name="Path 19479" class="cls-6" d="M381.467,128.727l1.053-.811a.636.636,0,0,0-.924-.136A.7.7,0,0,0,381.467,128.727Z" transform="translate(-368.789 -89.749)"/>
      <path id="Path_19480" data-name="Path 19480" class="cls-6" d="M383.22,132.912a.542.542,0,1,0,.538-.562A.554.554,0,0,0,383.22,132.912Z" transform="translate(-369.937 -92.623)"/>
      <path id="Path_19481" data-name="Path 19481" class="cls-13" d="M387.862,132.71l-.179,3.245-1.693-.577Z" transform="translate(-371.627 -92.843)"/>
      <path id="Path_19482" data-name="Path 19482" class="cls-5" d="M428.475,139.64a.2.2,0,0,1-.2-.2V75.2a.2.2,0,1,1,.39,0v64.231A.2.2,0,0,1,428.475,139.64Z" transform="translate(-397.423 -60.549)"/>
      <path id="Path_19483" data-name="Path 19483" class="cls-7" d="M425,85.53h0a4.74,4.74,0,0,1,1.56-2.34,4.465,4.465,0,0,1,1.42,2.34h0a.737.737,0,0,1-.433.608,2.3,2.3,0,0,1-2.094,0A.733.733,0,0,1,425,85.53Z" transform="translate(-395.422 -68.636)"/>
      <path id="Path_19484" data-name="Path 19484" class="cls-8" d="M425,85.53h0a4.74,4.74,0,0,1,1.56-2.34,4.465,4.465,0,0,1,1.42,2.34h0a.737.737,0,0,1-.433.608,2.3,2.3,0,0,1-2.094,0A.733.733,0,0,1,425,85.53Z" transform="translate(-395.422 -68.636)"/>
      <path id="Path_19485" data-name="Path 19485" class="cls-10" d="M406.66,39.772c0,4.8,3.764,10.858,8.69,12,4.953-1.385,8.689-7.207,8.689-12s-3.089-9.282-8.689-9.282S406.66,34.979,406.66,39.772Z" transform="translate(-384.235 -36.49)"/>
      <path id="Path_19486" data-name="Path 19486" class="cls-11" d="M423.664,53.376a7.456,7.456,0,0,1-6.993,4.973c-5.491.355-9.957-5.675-9.789-9.668a10.735,10.735,0,0,0-.222,2.188c0,4.8,3.764,10.858,8.69,12,4.107-1.147,7.371-5.343,8.374-9.477Z" transform="translate(-384.235 -47.586)"/>
      <path id="Path_19487" data-name="Path 19487" class="cls-12" d="M429.751,179.385c1.037-.3,2.1-3.4,2.024-5.39s-2.753-10.589-3.12-12.246c-.417-1.825-.39-3.214-.761-4.161a4.8,4.8,0,0,0-2.34-2.165,23.59,23.59,0,0,0-3.182-1.291c-.842-.168-1.17.39-1.076.831s.39,1.56.468,2.168a5.257,5.257,0,0,0,.667,2.215c.441.706,2.239,2.395,2.309,3.335s.589,6.045.885,9.75c.246,3.034.55,4.29,1.209,5.094S428.971,179.616,429.751,179.385Z" transform="translate(-393.153 -105.892)"/>
    </g>
    <g id="freepik--characters-with-banner--inject-1--inject-36" transform="translate(69.08 54.035)">
      <ellipse id="freepik--shadow--inject-1--inject-36-3" data-name="freepik--shadow--inject-1--inject-36" class="cls-15" cx="19.934" cy="9.501" rx="19.934" ry="9.501" transform="translate(1.141 87.904)"/>
      <ellipse id="freepik--shadow--inject-1--inject-36-4" data-name="freepik--shadow--inject-1--inject-36" class="cls-15" cx="19.934" cy="9.501" rx="19.934" ry="9.501" transform="translate(43.496 90.794)"/>
      <path id="Path_19488" data-name="Path 19488" class="cls-12" d="M197.63,123.391c1.034-.148,1.907,0,3.713,2.465,1.615,2.207,4.832,5.913,4.832,5.913s2.91-7.625,2.824-8.65-.729-1.658-1.151-3.545a8.741,8.741,0,0,0-.858-2.8c-.316-.55.78-.683,1.221,0s.5,1.646.8,1.474.519-2.246.257-3.736.417-1.825.725-1.349a2.5,2.5,0,0,1,.371.878,1.841,1.841,0,0,1,1.755.593A6.082,6.082,0,0,1,213.546,119c0,2.211-1.026,3.393-1.17,4.392s-1.95,10.253-3.229,13.381c-.8,1.95-1.915,2.543-3.272,1.4a99.917,99.917,0,0,1-6.849-7.711Z" transform="translate(-171.54 -104.343)"/>
      <path id="Path_19489" data-name="Path 19489" class="cls-7" d="M197.63,139.531a2.63,2.63,0,0,1,2.894,1.073c.944,1.131,4.4,5.507,4.4,5.507s-.1,2.239-2.991,4.314l-3.3-3.549Z" transform="translate(-171.54 -120.483)"/>
      <path id="Path_19490" data-name="Path 19490" class="cls-6" d="M203.372,324.049l-.031-.519a12.467,12.467,0,0,0,2.878,4.4c1.209.979,2.851,2.1,3.319,3.241s-2.083,1.755-3.167,1.626a6.637,6.637,0,0,1-3.861-1.782c-.663-.722-1.108-1.6-1.583-2.165s-1.533-1.17-1.814-1.853a4.45,4.45,0,0,1,.094-1.923c.14-.71.351-1.435.573-1.388a3.964,3.964,0,0,1-.055.456,2.871,2.871,0,0,0,1.856.507C202.116,324.638,203.4,324.454,203.372,324.049Z" transform="translate(-172.399 -232.786)"/>
      <path id="Path_19491" data-name="Path 19491" class="cls-12" d="M207.944,324.154c-.39-.3-.753-.585-1.1-.862a10.641,10.641,0,0,1-2.434-3.417v-.02a5.48,5.48,0,0,1-.491-2.687l.047-1.229-3.9.078.285,3.487h0v.09h.019c.222.745,2.012,2.66,3.042,3.9a5.257,5.257,0,0,0,3.42,1.993C208.233,325.62,208.9,325.144,207.944,324.154Z" transform="translate(-173.028 -228.156)"/>
      <path id="Path_19492" data-name="Path 19492" class="cls-6" d="M151.755,325.981c-.187-.109-.5.526-.819,1.01a3.588,3.588,0,0,0-.476,1.985,7.282,7.282,0,0,1-.121,2.34c-.218,1.295-.6,2.781.706,3.974,1.119,1.022,3.615,1.5,4.411.78a1.326,1.326,0,0,0,.488-1.1,8.234,8.234,0,0,0-.655-1.63,18.559,18.559,0,0,1-.827-1.81Z" transform="translate(-142.556 -234.274)"/>
      <path id="Path_19493" data-name="Path 19493" class="cls-12" d="M157.176,319.544c-.172-.144-.542,4.645-.647,5.784a10.338,10.338,0,0,0,.281,2.948,1.17,1.17,0,0,1-.058.87,1.022,1.022,0,0,1-.835.39,2.726,2.726,0,0,1-2.176-1.088,3.227,3.227,0,0,1-.347-1.8,13.256,13.256,0,0,0,.035-1.888,9.588,9.588,0,0,1-.172-1.95,3.9,3.9,0,0,1,.39-1.108,14.032,14.032,0,0,0,.526-2.7Z" transform="translate(-144.46 -230.029)"/>
      <path id="Path_19494" data-name="Path 19494" class="cls-5" d="M159.606,188.878c-2.024,2.6-2.391,5.285-1.95,12.87a81.409,81.409,0,0,1-.312,14.208c-.113.425-1.4,4.614-2,7.434-.706,3.3-.8,16.9-.8,16.9a5.479,5.479,0,0,0,3.662.25s5.367-21.252,5.936-22.964,4.879-19.372,4.879-19.372l-.55-10.168Z" transform="translate(-145.256 -150.139)"/>
      <path id="Path_19495" data-name="Path 19495" class="cls-5" d="M190.109,196.787c-.308-3.51-1.061-9.59-1.061-9.59l-8.97-.526c-1.455,2.266-.823,6.033-.425,9.438l5.133,20.093a17.628,17.628,0,0,0,0,8.19c1.1,5.78,2.457,13.42,2.457,13.42a5.882,5.882,0,0,0,4.041.043s.741-18.3.269-23.3C191.033,209.135,190.319,199.189,190.109,196.787Z" transform="translate(-160.279 -149.303)"/>
      <path id="Path_19496" data-name="Path 19496" class="cls-6" d="M187.64,220.019l1.463-7.371a15.909,15.909,0,0,0,3.662-1.868,11.126,11.126,0,0,1-2.562,2.36Z" transform="translate(-165.446 -164.01)"/>
      <path id="Path_19497" data-name="Path 19497" class="cls-12" d="M156.726,144.42c-1.006.581-2.672,1.112-3.366,3.069-.948,2.73-3.463,9.82-4.431,12.367h4.649l3.218-6.591C159.285,151.128,158.949,145.188,156.726,144.42Z" transform="translate(-141.834 -123.531)"/>
      <path id="Path_19498" data-name="Path 19498" class="cls-2" d="M178.93,152.847c.222,2.048,1.049,9.622,1.049,9.622-6.767,3.608-15.156,1.217-16.439-.269,1.17-3.83,2.414-6.01,3.37-7.02l-1.2-4.793s2.835-3.374-.07-8.845l3.771-1.24,5.164-.449,2.262-.152c.807.757,2.079,3.467,2.906,5.577C180.272,146.638,180.845,148.815,178.93,152.847Z" transform="translate(-150.746 -120.652)"/>
      <path id="Path_19499" data-name="Path 19499" class="cls-7" d="M159.191,144.42c-2.223.437-3.221,1.529-4.111,3.955-.959,2.625-2.11,5.46-2.11,5.46a5.69,5.69,0,0,0,5.7,2.36l1.439-4.013A7.7,7.7,0,0,0,159.191,144.42Z" transform="translate(-144.298 -123.531)"/>
      <path id="Path_19500" data-name="Path 19500" class="cls-16" d="M166.339,173.28a11.9,11.9,0,0,0,2.418,2.824c.776.484-1.373,1.17-1.677,2.4-.612,2.469,3.214,5.64,7.968,6.092-5.378.881-10.5-.78-11.478-1.911,1.17-3.83,2.414-6.01,3.37-7.02Z" transform="translate(-150.764 -141.136)"/>
      <path id="Path_19501" data-name="Path 19501" class="cls-6" d="M182.012,112.07h-7.227a8.842,8.842,0,0,1-8.845-8.845h0a8.034,8.034,0,0,1,8.034-8.034h0a8.034,8.034,0,0,1,8.038,8.034Z" transform="translate(-152.209 -93.502)"/>
      <path id="Path_19502" data-name="Path 19502" class="cls-12" d="M182.681,104.159c.85.5,1.9,2.636,1.794,7.114-.09,3.791-1.318,4.731-1.95,5a6.508,6.508,0,0,1-2.964-.09v2.278a1.841,1.841,0,0,1-.722,1.205,3.149,3.149,0,0,1-2.687.14c-1.385-.5-1.658-1.17-1.658-1.17l.023-5.238s-.679.663-1.837-.347c-.952-.835-1.271-2.239-.53-3a1.661,1.661,0,0,1,2.644.53s.679.055,1.357-1.209c0,0-.023-3.424.741-3.869A9.925,9.925,0,0,1,182.681,104.159Z" transform="translate(-155.749 -98.972)"/>
      <path id="Path_19503" data-name="Path 19503" class="cls-6" d="M190.271,118.6a.48.48,0,0,1-.449.515.5.5,0,1,1,.449-.515Z" transform="translate(-166.447 -107.492)"/>
      <g id="Group_653" data-name="Group 653" class="cls-17" transform="translate(24.596 14.563)">
        <path id="Path_19504" data-name="Path 19504" class="cls-13" d="M193.824,128.2l1.108.351a.569.569,0,0,1-.722.39A.608.608,0,0,1,193.824,128.2Z" transform="translate(-193.8 -128.2)"/>
      </g>
      <path id="Path_19505" data-name="Path 19505" class="cls-6" d="M201.373,114.069l-.963-.667a.558.558,0,0,1,.8-.164A.612.612,0,0,1,201.373,114.069Z" transform="translate(-173.236 -104.448)"/>
      <path id="Path_19506" data-name="Path 19506" class="cls-6" d="M188.329,114.421l-1.1.421a.558.558,0,0,1,.316-.753A.616.616,0,0,1,188.329,114.421Z" transform="translate(-165.168 -105.006)"/>
      <path id="Path_19507" data-name="Path 19507" class="cls-6" d="M200.709,118.332a.48.48,0,1,1-.5-.472A.491.491,0,0,1,200.709,118.332Z" transform="translate(-172.833 -107.33)"/>
      <g id="Group_654" data-name="Group 654" class="cls-17" transform="translate(25.587 10.729)">
        <path id="Path_19508" data-name="Path 19508" class="cls-13" d="M196.34,118.37l.074,2.87,1.513-.468Z" transform="translate(-196.34 -118.37)"/>
      </g>
      <g id="Group_655" data-name="Group 655" class="cls-17" transform="translate(19.706 15.343)">
        <path id="Path_19509" data-name="Path 19509" class="cls-13" d="M185.382,132.072c-1.221-.16-3.732-.878-4.122-1.872a2.555,2.555,0,0,0,.881,1.268,13.146,13.146,0,0,0,3.241,1.365Z" transform="translate(-181.26 -130.2)"/>
      </g>
      <path id="Path_19510" data-name="Path 19510" class="cls-6" d="M183.273,92.978l-.183-2.106a1.022,1.022,0,0,1,1.17.92A1.112,1.112,0,0,1,183.273,92.978Z" transform="translate(-162.671 -90.861)"/>
      <path id="Path_19511" data-name="Path 19511" class="cls-6" d="M180.6,94.154l-1.7-1.248a1.026,1.026,0,0,1,1.463-.265A1.112,1.112,0,0,1,180.6,94.154Z" transform="translate(-160.115 -91.826)"/>
      <path id="Path_19512" data-name="Path 19512" class="cls-6" d="M179.61,118.729v1.993h0a1.357,1.357,0,0,0,1.357-1.357V117.52Z" transform="translate(-160.548 -107.123)"/>
      <path id="Path_19513" data-name="Path 19513" class="cls-6" d="M184.606,96.4h0a6.747,6.747,0,0,1,6.747,6.747v.874h-3.3a3.073,3.073,0,0,1-3.046-2.656h0l-.121,2.656h0a2.441,2.441,0,0,1-2.434-2.227l-.039-.437h0a2.894,2.894,0,0,1-2.882,2.664h-.3l-.335-4.766Z" transform="translate(-160.115 -94.24)"/>
      <path id="Path_19514" data-name="Path 19514" class="cls-6" d="M302.1,337.515V337a12.562,12.562,0,0,1-2.609,4.567c-1.151,1.049-2.73,2.262-3.12,3.432s2.184,1.626,3.26,1.435a6.612,6.612,0,0,0,3.744-2.009c.62-.761,1.014-1.661,1.455-2.258s1.459-1.268,1.7-1.95a4.382,4.382,0,0,0-.207-1.915c-.183-.7-.351-1.353-.573-1.295v.39a2.871,2.871,0,0,1-1.825.616C303.388,338.03,302.093,337.924,302.1,337.515Z" transform="translate(-231.745 -241.003)"/>
      <path id="Path_19515" data-name="Path 19515" class="cls-4" d="M301.14,337.8c.359-.32.718-.628,1.041-.928a10.539,10.539,0,0,0,2.227-3.553,5.07,5.07,0,0,0,.39-1.919V329.32h3.647v3.385h0v.09h-.019c-.175.757-1.849,2.777-2.8,4.091a5.3,5.3,0,0,1-3.3,2.2C300.949,339.273,300.251,338.84,301.14,337.8Z" transform="translate(-234.438 -236.318)"/>
      <path id="Path_19516" data-name="Path 19516" class="cls-6" d="M265.613,328.283v-.523a12.54,12.54,0,0,1-2.605,4.567c-1.151,1.049-2.73,2.262-3.12,3.432s2.184,1.626,3.26,1.435a6.647,6.647,0,0,0,3.744-2.009c.616-.761,1.01-1.661,1.455-2.258s1.459-1.268,1.7-1.95a4.382,4.382,0,0,0-.207-1.915c-.172-.644-.355-1.353-.573-1.295v.39a2.871,2.871,0,0,1-1.825.616C266.9,328.8,265.609,328.692,265.613,328.283Z" transform="translate(-209.492 -235.366)"/>
      <path id="Path_19517" data-name="Path 19517" class="cls-4" d="M264.66,328.579c.355-.32.714-.628,1.041-.928a10.526,10.526,0,0,0,2.223-3.553,4.984,4.984,0,0,0,.39-1.919V320.1h3.647v3.381h0v.09h-.019c-.176.757-1.849,2.773-2.8,4.091a5.307,5.307,0,0,1-3.3,2.2C264.469,330.053,263.771,329.62,264.66,328.579Z" transform="translate(-212.186 -230.694)"/>
      <path id="Path_19518" data-name="Path 19518" class="cls-5" d="M289.582,191.548c2.828,6.178-.1,27.937-.1,27.937.086,1,1.229,2.976,1.658,7.387.5,5.211-.78,18.3-.78,18.3a3.951,3.951,0,0,1-3.686.148s-3.491-19.731-4.142-24.91c-.573-4.52-1.665-14.466-1.665-14.466l-3.12,14.43a27.081,27.081,0,0,1,.983,4.466c.3,3.05-2.656,17.242-2.656,17.242a8.142,8.142,0,0,1-3.65.109s-1.041-18.838-1.318-22.508c-.464-6.17,1.17-25.413,2.3-29.064Z" transform="translate(-216.309 -151.713)"/>
      <path id="Path_19519" data-name="Path 19519" class="cls-6" d="M285.994,217.078l-.92-5.737s-3.9-.807-5.644-2.461a10.028,10.028,0,0,0,4.59,3.05l1.034,4.407-1.8,13.373Z" transform="translate(-221.437 -162.851)"/>
      <path id="Path_19520" data-name="Path 19520" class="cls-4" d="M274.776,137.41a4.782,4.782,0,0,0-4.661,1.927c-1.229,1.634-5.955,15.382-5.955,15.382h4.255l5.823-11.521Z" transform="translate(-212.123 -119.216)"/>
      <path id="Path_19521" data-name="Path 19521" class="cls-2" d="M287.645,137.661h0c3.627.25,3.881,2,4.785,3.9a6.174,6.174,0,0,1,.172,4.68l-2.523,7.309s1.17,2.859,2.555,5.562c-6.342,3.537-14.259,1.677-16.166-.9-.078-.546.39-4.828.714-7.625-1.119-2.8-1.412-4.579-.94-6.431.874-3.436,4.267-6.786,5.772-6.665Z" transform="translate(-219.36 -119.299)"/>
      <path id="Path_19522" data-name="Path 19522" class="cls-16" d="M290.82,166.484a3.83,3.83,0,0,0,2.855-4.68,1.167,1.167,0,0,0-.066-.2,1.244,1.244,0,0,0-1.283-.854h0a3.678,3.678,0,0,0,1.583-2.36l.78-3.865s-1.431-4.54-1.287-6.1l3.639.211.472.328a6.33,6.33,0,0,1-.105,3.947l-2.523,7.309s1.17,2.859,2.555,5.562a16.381,16.381,0,0,1-13.549.9A18.49,18.49,0,0,0,290.82,166.484Z" transform="translate(-224.158 -125.977)"/>
      <path id="Path_19523" data-name="Path 19523" class="cls-4" d="M320.668,156.454s-3.6-7.083-5.979-12.5c-1.716-3.9-2.1-4.8-4.836-5.222l-.963-.148c-1.295,4.255-.39,6.186,1.3,9.1l5.924,11.232C317.458,158.634,320.7,156.86,320.668,156.454Z" transform="translate(-239.033 -119.969)"/>
      <path id="Path_19524" data-name="Path 19524" class="cls-6" d="M6.817,0h2.57a6.837,6.837,0,0,1,6.837,6.837V7.984a6.876,6.876,0,0,1-6.876,6.876H6.876A6.876,6.876,0,0,1,0,7.984V6.837A6.837,6.837,0,0,1,6.837,0Z" transform="translate(73.597 15.354) rotate(180)"/>
      <path id="Path_19525" data-name="Path 19525" class="cls-4" d="M281.872,100.54c-.858.507-1.919,2.664-1.814,7.184.09,3.83,1.33,4.774,1.95,5.047a6.633,6.633,0,0,0,3-.086v2.3s-1.619,1.876-1.513,2.929,2.34,1.3,3.842.273a9.751,9.751,0,0,0,2.48-2.6v-5.554a1.462,1.462,0,0,0,2.079.195,2.746,2.746,0,0,0,.593-3.74,1.673,1.673,0,0,0-2.672.534,9.24,9.24,0,0,1-4.345-1.3A6.958,6.958,0,0,1,281.872,100.54Z" transform="translate(-221.816 -96.765)"/>
      <path id="Path_19526" data-name="Path 19526" class="cls-6" d="M292.13,115.745a.484.484,0,1,0,.507-.476A.491.491,0,0,0,292.13,115.745Z" transform="translate(-229.184 -105.75)"/>
      <path id="Path_19527" data-name="Path 19527" class="cls-9" d="M288.955,124.81l-1.115.359a.573.573,0,0,0,.725.39A.62.62,0,0,0,288.955,124.81Z" transform="translate(-226.567 -111.569)"/>
      <path id="Path_19528" data-name="Path 19528" class="cls-6" d="M281.845,111.222l.975-.679a.573.573,0,0,0-.811-.164A.62.62,0,0,0,281.845,111.222Z" transform="translate(-222.85 -102.705)"/>
      <path id="Path_19529" data-name="Path 19529" class="cls-6" d="M282.58,114.85a.484.484,0,1,0,.507-.48.5.5,0,0,0-.507.48Z" transform="translate(-223.358 -105.201)"/>
      <path id="Path_19530" data-name="Path 19530" class="cls-9" d="M286.113,114.89l-.078,2.9-1.525-.472Z" transform="translate(-224.536 -105.518)"/>
      <path id="Path_19531" data-name="Path 19531" class="cls-9" d="M292.76,128.722c1.229-.164,3.764-.893,4.158-1.892a2.566,2.566,0,0,1-.885,1.275,13.251,13.251,0,0,1-3.272,1.381Z" transform="translate(-229.568 -112.802)"/>
      <path id="Path_19532" data-name="Path 19532" class="cls-6" d="M315.137,93.736c-1.583.659-1.229,2.016-.566,3.6s1.385,2.789,2.945,2.11a3.12,3.12,0,1,0-2.395-5.725Z" transform="translate(-242.53 -92.371)"/>
      <path id="Path_19533" data-name="Path 19533" class="cls-6" d="M312.464,93.809l-.554-2.64a1.307,1.307,0,0,1,1.6.987,1.412,1.412,0,0,1-1.041,1.654Z" transform="translate(-241.249 -91.024)"/>
      <rect id="Rectangle_789" data-name="Rectangle 789" class="cls-7" width="82.663" height="18.927" transform="translate(1.547 35.502)"/>
      <path id="Path_19534" data-name="Path 19534" class="cls-18" d="M160.149,206.275a.518.518,0,0,1-.148-.246l-2.009-6.521a.35.35,0,0,1,0-.121c0-.129.078-.191.238-.191h1.147a.39.39,0,0,1,.25.058.336.336,0,0,1,.105.207l1.295,4.551,1.47-3.9a.55.55,0,0,1,.137-.215.335.335,0,0,1,.238-.066h.64a.363.363,0,0,1,.23.059.565.565,0,0,1,.125.222l1.459,3.9,1.307-4.551a.53.53,0,0,1,.105-.207.39.39,0,0,1,.253-.058h1.143c.16,0,.238.062.238.191a.51.51,0,0,1,0,.121l-2.04,6.513a.5.5,0,0,1-.14.253.452.452,0,0,1-.261.059h-.917a.363.363,0,0,1-.238-.066.745.745,0,0,1-.148-.246l-1.486-4-1.49,4a.636.636,0,0,1-.156.246.39.39,0,0,1-.246.066H160.4A.472.472,0,0,1,160.149,206.275Z" transform="translate(-147.358 -156.943)"/>
      <path id="Path_19535" data-name="Path 19535" class="cls-18" d="M187.127,205.832a3.3,3.3,0,0,1-1.494-1.221,3.577,3.577,0,0,1-.558-2.059,3.877,3.877,0,0,1,1.026-2.913,4.012,4.012,0,0,1,2.913-1,3.818,3.818,0,0,1,2.835.967,3.776,3.776,0,0,1,.959,2.8c0,.347-.16.523-.476.523h-5.46a1.8,1.8,0,0,0,.686,1.509,3.05,3.05,0,0,0,1.9.527,4.189,4.189,0,0,0,2.11-.534.39.39,0,0,1,.164-.062c.07,0,.125.047.164.137l.359.64a.391.391,0,0,1,.043.164.242.242,0,0,1-.133.191,4.68,4.68,0,0,1-1.318.55,6.586,6.586,0,0,1-1.626.179A5.378,5.378,0,0,1,187.127,205.832Zm3.955-4.009a1.974,1.974,0,0,0-.511-1.439,2.075,2.075,0,0,0-1.541-.523,2.231,2.231,0,0,0-1.6.534,1.9,1.9,0,0,0-.558,1.427Z" transform="translate(-163.88 -156.605)"/>
      <path id="Path_19536" data-name="Path 19536" class="cls-18" d="M208.8,201.565a.566.566,0,0,1-.129-.39v-9.04a.589.589,0,0,1,.129-.417.55.55,0,0,1,.421-.133H210a.593.593,0,0,1,.433.133.569.569,0,0,1,.133.417v9.029a.565.565,0,0,1-.125.39.608.608,0,0,1-.441.133h-.78A.566.566,0,0,1,208.8,201.565Z" transform="translate(-178.271 -152.299)"/>
      <path id="Path_19537" data-name="Path 19537" class="cls-18" d="M218.357,205.249a3.51,3.51,0,0,1-1.108-2.789,3.853,3.853,0,0,1,.507-1.993,3.479,3.479,0,0,1,1.447-1.346,4.837,4.837,0,0,1,2.211-.484,6.211,6.211,0,0,1,1.591.179,3.8,3.8,0,0,1,1.217.581.246.246,0,0,1,.137.191.44.44,0,0,1-.074.211l-.39.7c-.062.1-.117.148-.164.148a.39.39,0,0,1-.211-.09,4.131,4.131,0,0,0-.913-.421,3.553,3.553,0,0,0-1.08-.144,2.34,2.34,0,0,0-1.755.663,2.5,2.5,0,0,0-.64,1.806,2.379,2.379,0,0,0,.64,1.81,2.644,2.644,0,0,0,1.876.6,3.323,3.323,0,0,0,1.977-.581.421.421,0,0,1,.2-.074c.058,0,.117.051.176.148l.433.729a.265.265,0,0,1,.058.164c0,.07-.051.14-.148.211a4.432,4.432,0,0,1-1.279.569,6.125,6.125,0,0,1-1.607.187A4.531,4.531,0,0,1,218.357,205.249Z" transform="translate(-183.503 -156.603)"/>
      <path id="Path_19538" data-name="Path 19538" class="cls-18" d="M239.849,205.208a4.189,4.189,0,0,1,0-5.546,4.872,4.872,0,0,1,5.971,0,3.809,3.809,0,0,1-2.987,6.564A4.112,4.112,0,0,1,239.849,205.208Zm4.587-.991a2.555,2.555,0,0,0,.554-1.782,2.508,2.508,0,0,0-.554-1.763,2.422,2.422,0,0,0-3.2,0,2.492,2.492,0,0,0-.558,1.763,2.543,2.543,0,0,0,.558,1.775,2.387,2.387,0,0,0,3.2,0Z" transform="translate(-196.653 -156.605)"/>
      <path id="Path_19539" data-name="Path 19539" class="cls-18" d="M263.373,205.884a.55.55,0,0,1-.137-.39v-6.2a.5.5,0,0,1,.078-.316c.047-.058.152-.086.312-.086h.78a.339.339,0,0,1,.238.066.362.362,0,0,1,.09.23l.043.624a3.12,3.12,0,0,1,.991-.846,2.781,2.781,0,0,1,1.33-.3,2.16,2.16,0,0,1,1.139.293,1.673,1.673,0,0,1,.706.854,2.73,2.73,0,0,1,2.363-1.147,2.227,2.227,0,0,1,1.673.64,2.652,2.652,0,0,1,.616,1.9v4.29a.581.581,0,0,1-.125.39.608.608,0,0,1-.441.133h-.655a.608.608,0,0,1-.429-.133.55.55,0,0,1-.133-.39v-4.2a1.369,1.369,0,0,0-.292-.983,1.17,1.17,0,0,0-.87-.3,1.3,1.3,0,0,0-.987.39,1.521,1.521,0,0,0-.39,1.084v3.974a.55.55,0,0,1-.133.39.612.612,0,0,1-.433.133H268.1a.593.593,0,0,1-.429-.133.55.55,0,0,1-.137-.39v-4.243a1.342,1.342,0,0,0-.257-.913,1.061,1.061,0,0,0-.827-.293,1.369,1.369,0,0,0-1.041.425,1.536,1.536,0,0,0-.39,1.108v3.927a.581.581,0,0,1-.125.39.608.608,0,0,1-.441.133H263.8A.6.6,0,0,1,263.373,205.884Z" transform="translate(-211.558 -156.618)"/>
      <path id="Path_19540" data-name="Path 19540" class="cls-18" d="M295.417,205.862a3.3,3.3,0,0,1-1.494-1.2,3.576,3.576,0,0,1-.558-2.059,3.877,3.877,0,0,1,1.026-2.913,4.012,4.012,0,0,1,2.913-1,3.818,3.818,0,0,1,2.835.967,3.776,3.776,0,0,1,.959,2.8c0,.347-.16.523-.476.523h-5.452a1.8,1.8,0,0,0,.686,1.509,3.042,3.042,0,0,0,1.9.527,4.2,4.2,0,0,0,2.11-.534.39.39,0,0,1,.164-.062c.07,0,.125.047.164.137l.359.64a.39.39,0,0,1,.043.164.242.242,0,0,1-.133.191,4.68,4.68,0,0,1-1.318.55,6.588,6.588,0,0,1-1.626.179A5.378,5.378,0,0,1,295.417,205.862Zm3.955-4.009a1.974,1.974,0,0,0-.511-1.439,2.079,2.079,0,0,0-1.541-.523,2.223,2.223,0,0,0-1.6.534,1.9,1.9,0,0,0-.55,1.427Z" transform="translate(-229.936 -156.635)"/>
      <path id="Path_19541" data-name="Path 19541" class="cls-18" d="M316.17,201.106v-.316c0-.413.293-.624.878-.624h.39c.585,0,.878.211.878.624v.316q0,.608-.878.608h-.39Q316.17,201.7,316.17,201.106Zm.32-2.34a.62.62,0,0,1-.113-.41l-.086-6.221a.589.589,0,0,1,.125-.417.566.566,0,0,1,.425-.133h.823a.565.565,0,0,1,.425.133.589.589,0,0,1,.125.417l-.1,6.217a.62.62,0,0,1-.113.41.542.542,0,0,1-.39.125h-.729a.468.468,0,0,1-.386-.121Z" transform="translate(-243.848 -152.3)"/>
      <path id="Path_19542" data-name="Path 19542" class="cls-12" d="M132.281,190.65c-.242.675-.78.995-1.17,1.665a5.073,5.073,0,0,0-.113,3.51,4.2,4.2,0,0,0,3.264,2.094,2.679,2.679,0,0,0,1.591-.445,2.425,2.425,0,0,0,.573-.538,2.568,2.568,0,0,0,.328-.729.125.125,0,0,1,.031-.055.152.152,0,0,1,.07-.023.933.933,0,0,0,.464-.207.589.589,0,0,0,.211-.452.694.694,0,0,0-.355-.527,2.9,2.9,0,0,0-.62-.234c-.519-.168-1-.429-1.505-.62a8.1,8.1,0,0,1-2.773-1.673Z" transform="translate(-130.735 -151.731)"/>
      <path id="Path_19543" data-name="Path 19543" class="cls-4" d="M339.375,192.21c.242.683.78,1.006,1.17,1.689a5.2,5.2,0,0,1,.117,3.561,4.263,4.263,0,0,1-3.315,2.126,2.512,2.512,0,0,1-2.531-1.638c-.355-1.229.257-1.693,1.732-2.25a8.191,8.191,0,0,0,2.816-1.7Z" transform="translate(-255.162 -152.683)"/>
      <path id="Path_19544" data-name="Path 19544" class="cls-4" d="M248.033,177.515a3.67,3.67,0,0,1,2.812,1.646h-1.786s-.226.6.39,2.851c.211.78-.956.811-.991.515a2.261,2.261,0,0,1-2.894.39c-1.053-.7-1.521-1.767-1.287-3.768C244.664,176.922,247.643,177.452,248.033,177.515Z" transform="translate(-199.958 -143.658)"/>
    </g>
  </g>
</svg>
